<!DOCTYPE svg PUBLIC "-//W3C//DTD SVG 20010904//EN"
 "http://www.w3.org/TR/2001/REC-SVG-20010904/DTD/svg10.dtd">
<svg version="1.0" xmlns="http://www.w3.org/2000/svg"
 viewBox="0 0 512.000000 512.000000"
 preserveAspectRatio="xMidYMid meet">
<metadata>
Created by potrace 1.16, written by Peter Selinger 2001-2019
</metadata>
<g transform="translate(0.000000,512.000000) scale(0.100000,-0.100000)"
fill="currentColor" stroke="none">
<path d="M2870 3870 c-1023 -8 -955 -1 -980 -103 -12 -47 -12 -47 -165 -47
-159 0 -215 -19 -215 -75 0 -24 -33 -26 -212 -16 -95 6 -359 12 -586 13 -414
3 -414 3 -443 -30 -57 -63 -21 -157 123 -322 298 -340 780 -547 1408 -605 92
-9 233 -73 298 -136 61 -58 82 -106 82 -182 0 -194 -114 -320 -473 -521 -158
-88 -152 -75 -152 -321 0 -290 -35 -266 405 -280 225 -8 225 -8 345 53 397
200 836 192 1165 -22 54 -36 54 -36 352 -36 408 0 383 -17 382 265 -1 266 10
249 -259 406 -680 397 -329 1142 629 1334 250 50 290 103 291 381 0 292 257
260 -1995 244z m1705 -139 c177 -7 178 -8 156 -159 -18 -125 -52 -172 -125
-172 -51 0 -300 -60 -371 -90 -11 -4 -38 -16 -60 -25 -790 -333 -974 -1061
-367 -1453 78 -50 78 -51 -105 -53 -150 -2 -150 -2 -314 84 -220 115 -231 118
-519 117 -299 0 -401 -27 -595 -155 -53 -36 -53 -36 -206 -33 l-154 3 85 59
c417 290 455 679 87 890 -84 49 -85 50 -76 166 4 52 8 255 8 451 1 357 1 357
23 362 12 3 188 4 392 1 204 -3 571 -1 816 4 527 10 1116 12 1325 3z m-2747
-147 c52 -7 52 -7 52 -376 0 -432 20 -386 -164 -369 -549 51 -1149 347 -1301
642 -24 44 -35 43 332 31 186 -7 427 -15 536 -18 233 -7 222 -1 231 -120 7
-91 19 -130 49 -148 49 -31 77 42 83 218 2 71 7 132 10 137 6 10 96 12 172 3z
m1230 -1688 c110 -39 397 -199 432 -241 12 -15 7 -191 -5 -204 -3 -2 -37 11
-76 29 -39 18 -88 37 -108 42 -341 88 -631 78 -926 -32 -103 -38 -100 -41
-103 82 -3 123 -9 114 141 202 169 100 229 114 578 134 15 1 45 -4 67 -12z
m-925 -266 c4 -3 6 -60 5 -126 l-3 -119 -222 -3 -223 -2 0 135 0 136 218 -7
c119 -3 221 -10 225 -14z m1935 -106 c3 -156 22 -145 -234 -142 l-209 3 -3
124 c-2 93 1 127 10 133 7 4 108 7 223 5 l210 -2 3 -121z M3395 3610 c-38 -4
-313 -13 -610 -20 -582 -12 -580 -12 -589 -35 -28 -73 355 -90 1334 -59 106 4
284 1 416 -6 326 -18 507 3 464 54 -24 30 -63 36 -485 66 -157 11 -423 11
-530 0z"/>
</g>
</svg>
