<!DOCTYPE svg PUBLIC "-//W3C//DTD SVG 20010904//EN"
 "http://www.w3.org/TR/2001/REC-SVG-20010904/DTD/svg10.dtd">
<svg version="1.0" xmlns="http://www.w3.org/2000/svg"
 viewBox="0 0 512.000000 512.000000"
 preserveAspectRatio="xMidYMid meet">
<metadata>
Created by potrace 1.16, written by Peter Selinger 2001-2019
</metadata>
<g transform="translate(0.000000,512.000000) scale(0.100000,-0.100000)"
fill="currentColor" stroke="none">
<path d="M2273 4635 c-231 -65 -307 -326 -144 -497 45 -47 45 -47 5 -64 -196
-80 -264 -168 -209 -273 16 -33 92 -101 111 -101 43 0 12 -22 -60 -44 -283
-87 -343 -363 -99 -456 81 -31 75 -35 -190 -119 -295 -95 -343 -178 -233 -406
79 -162 142 -211 308 -240 45 -8 83 -16 85 -18 2 -3 -55 -43 -126 -90 -194
-130 -251 -207 -251 -341 0 -154 79 -249 253 -305 61 -20 58 -22 -133 -81 -25
-8 -137 -40 -215 -62 -116 -32 -154 -78 -264 -321 -106 -231 -99 -277 63 -446
166 -171 155 -168 726 -227 429 -44 485 -51 585 -64 217 -28 266 -32 345 -25
47 3 103 10 125 15 155 34 374 73 510 90 425 52 514 100 604 323 27 69 5 196
-52 297 -52 92 -98 192 -122 265 -52 162 -106 202 -342 260 -88 21 -89 28 -17
80 107 76 185 179 230 303 47 130 21 215 -87 279 -50 30 -391 143 -430 143
-31 0 -32 21 -2 53 135 146 100 333 -91 480 -43 33 -46 47 -8 47 315 2 460
186 280 356 -42 40 -63 53 -203 129 -173 94 -173 94 -85 132 108 47 152 177
88 258 -22 28 -132 85 -165 85 -42 1 -47 15 -25 64 127 269 -396 625 -765 521z
m259 -135 c352 -69 534 -382 225 -386 -385 -5 -581 81 -565 246 12 121 148
177 340 140z m273 -541 c50 -6 106 -15 125 -20 81 -24 169 -61 173 -73 11 -28
-112 -66 -308 -95 -38 -6 -100 -15 -136 -21 -133 -20 -304 -11 -384 20 -11 5
-57 22 -102 40 -126 49 -130 65 -29 110 134 59 361 72 661 39z m103 -367 c99
-49 99 -50 17 -93 -84 -43 -124 -83 -109 -107 25 -40 129 -17 216 49 61 45 56
46 178 -24 218 -124 205 -141 -150 -188 -47 -6 -107 -15 -133 -20 -112 -21
-407 -2 -647 43 -390 72 -432 92 -385 192 25 53 93 79 245 95 219 24 420 49
490 61 91 16 238 11 278 -8z m-558 -503 c169 -24 212 -28 370 -39 429 -30 634
-359 284 -456 -168 -46 -385 -83 -489 -84 -107 0 -483 30 -620 50 -234 34
-235 35 -292 147 -86 167 -72 178 132 106 237 -84 249 -86 330 -87 153 0 403
83 413 137 7 35 -73 32 -253 -8 -78 -17 -201 -20 -237 -6 -22 9 -96 31 -221
66 -32 9 -57 19 -54 21 4 4 116 46 242 91 39 13 79 28 90 33 71 29 163 50 200
44 17 -3 64 -9 105 -15z m672 -679 c29 -6 78 -15 108 -21 108 -21 407 -112
436 -133 15 -12 11 -15 -37 -26 -30 -7 -95 -28 -146 -46 -147 -55 -348 -94
-488 -94 -112 -1 -246 -62 -212 -97 3 -3 120 0 259 6 255 10 289 15 413 61
281 103 275 102 254 38 -57 -174 -214 -272 -519 -323 -85 -14 -200 -34 -255
-44 -304 -55 -391 -58 -580 -19 -71 15 -179 37 -240 48 -280 53 -387 102 -400
181 -19 110 18 158 221 290 227 149 241 154 424 148 245 -7 416 0 510 20 100
22 179 25 252 11z m281 -789 c327 -72 318 -66 242 -139 -95 -90 -132 -104
-355 -132 -150 -19 -210 -41 -210 -76 0 -22 42 -26 233 -22 237 6 260 14 393
139 124 117 116 118 166 -36 12 -38 42 -108 67 -155 79 -149 84 -161 89 -210
15 -161 -84 -227 -408 -270 -202 -28 -267 -38 -425 -70 -76 -15 -210 -40 -217
-40 -15 0 -8 37 17 87 73 152 52 264 -72 394 -96 101 -256 144 -668 179 -71 6
-159 16 -195 21 -221 33 -251 39 -399 75 -127 32 -129 37 -31 68 30 10 116 37
190 61 306 98 360 106 510 76 25 -5 84 -17 133 -27 95 -19 242 -6 512 45 28 5
79 14 115 21 35 6 66 13 69 16 8 8 202 4 244 -5z m-1899 -291 c171 -94 436
-149 821 -170 105 -6 204 -15 220 -19 17 -5 57 -14 90 -21 195 -42 333 -217
265 -338 -5 -9 -25 -52 -44 -94 -40 -89 -38 -88 -174 -69 -133 19 -343 42
-557 61 -605 54 -630 61 -751 196 -101 112 -96 102 -73 170 48 139 128 314
143 314 3 0 29 -14 60 -30z"/>
</g>
</svg>
