<!DOCTYPE svg PUBLIC "-//W3C//DTD SVG 20010904//EN"
 "http://www.w3.org/TR/2001/REC-SVG-20010904/DTD/svg10.dtd">
<svg version="1.0" xmlns="http://www.w3.org/2000/svg"
 viewBox="0 0 512.000000 512.000000"
 preserveAspectRatio="xMidYMid meet">
<metadata>
Created by potrace 1.16, written by Peter Selinger 2001-2019
</metadata>
<g transform="translate(0.000000,512.000000) scale(0.100000,-0.100000)"
fill="currentColor" stroke="none">
<path d="M2537 4739 c-171 -113 -348 -345 -415 -544 -47 -140 -54 -203 -57
-470 -2 -181 -5 -220 -24 -280 -35 -115 -40 -117 -61 -20 -7 33 -17 64 -22 70
-4 5 -8 15 -8 23 0 48 -175 255 -227 268 -74 19 -103 -28 -103 -168 0 -138
-42 -262 -145 -423 -59 -92 -134 -223 -159 -277 -159 -346 -91 -756 172 -1029
77 -81 78 -81 -83 -63 -178 19 -289 18 -331 -2 -163 -77 -217 -396 -87 -518
28 -27 28 -27 -17 -64 -114 -94 -133 -131 -138 -268 -10 -292 242 -539 475
-464 41 14 56 24 378 243 354 240 424 287 431 287 10 0 -3 -78 -40 -245 -62
-275 144 -462 489 -442 310 17 463 204 407 497 -19 98 -24 180 -12 180 12 0
391 -277 592 -432 178 -137 428 -110 604 66 190 191 172 418 -42 526 -132 66
-157 100 -73 100 109 0 159 72 159 230 0 255 -136 385 -367 350 -310 -47 -318
-46 -249 23 318 319 348 757 88 1257 -188 361 -197 388 -189 561 9 171 -32
206 -141 120 -77 -61 -211 -288 -212 -358 0 -31 -20 -8 -53 62 -40 82 -115
197 -226 345 -192 257 -241 457 -184 751 27 138 -23 179 -130 108z m-47 -316
c2 -262 58 -399 295 -718 167 -225 220 -359 245 -625 13 -135 23 -153 83 -148
69 5 115 108 137 303 24 224 76 380 95 288 23 -110 19 -100 148 -363 110 -223
145 -303 170 -392 111 -390 -59 -751 -457 -967 -74 -40 -75 -38 -31 46 97 186
86 408 -33 636 -73 141 -133 140 -173 -3 -37 -135 -93 -200 -172 -200 -76 0
-77 14 -36 295 33 216 -36 436 -185 593 -110 116 -176 99 -176 -45 -1 -213
-46 -302 -265 -518 -224 -221 -280 -325 -278 -520 1 -123 24 -204 83 -290 75
-109 -164 21 -318 173 -291 288 -317 669 -71 1058 69 109 147 256 169 319 17
48 29 93 35 133 21 132 109 -139 104 -319 -7 -217 241 -44 327 228 26 83 27
103 35 358 10 379 40 478 211 703 53 68 58 66 58 -25z m92 -1501 c56 -120 66
-262 29 -427 -36 -157 -27 -231 32 -293 94 -99 264 -80 372 40 55 62 63 58 77
-45 24 -170 -22 -315 -135 -429 -97 -98 -108 -101 -157 -45 -133 151 -357 151
-496 0 -62 -67 -67 -66 -156 20 -234 225 -212 490 61 734 185 165 311 351 311
460 0 68 26 63 62 -15z m1412 -1236 c85 -89 74 -241 -18 -250 -239 -24 -247
-23 -441 76 -189 95 -238 125 -231 137 5 8 94 19 316 42 63 6 138 15 165 19
123 19 175 13 209 -24z m-2710 5 c34 -5 99 -14 146 -20 338 -41 320 -37 291
-57 -20 -14 -257 -134 -354 -179 -44 -20 -252 -10 -281 15 -24 19 -21 130 4
180 36 70 68 80 194 61z m1365 -30 c51 -37 80 -99 91 -192 5 -46 14 -115 19
-154 5 -38 14 -106 20 -150 6 -44 14 -95 17 -114 8 -38 15 -38 -90 -2 -33 12
-71 21 -86 21 -36 0 -40 12 -40 126 0 114 -16 164 -54 164 -32 0 -45 -36 -57
-159 -12 -124 -12 -126 -62 -141 -23 -8 -59 -22 -79 -32 -49 -24 -51 -23 -45
10 4 15 10 47 15 72 5 25 17 79 25 120 9 41 25 129 37 194 32 189 44 218 107
252 40 22 142 13 182 -15z m473 -110 c39 -16 308 -157 478 -249 36 -19 85 -46
110 -59 46 -25 77 -50 69 -55 -125 -84 -152 -83 -305 9 -172 104 -236 132
-258 114 -32 -27 27 -90 204 -217 139 -99 133 -92 121 -144 -6 -25 -13 -62
-16 -82 -8 -50 4 -55 -185 83 -91 66 -220 159 -287 205 -144 99 -136 88 -153
232 -14 126 -16 123 55 145 134 43 114 41 167 18z m-1012 -34 c107 -36 107
-37 83 -165 -13 -68 -36 -92 -193 -198 -217 -146 -403 -274 -454 -310 -26 -19
-50 -34 -52 -32 -8 8 -6 150 2 157 5 5 72 50 149 101 209 139 263 187 249 224
-7 18 -45 21 -72 7 -9 -5 -98 -55 -198 -110 -99 -56 -186 -101 -193 -101 -12
0 -131 119 -131 131 0 8 553 284 620 310 62 24 81 22 190 -14z m-911 -430
c149 -73 190 -301 72 -400 -136 -114 -367 171 -282 346 41 86 110 103 210 54z
m2812 -29 c119 -28 162 -122 101 -219 -138 -216 -457 -224 -455 -11 2 161 173
272 354 230z m-1308 -173 c119 -59 170 -173 114 -256 -135 -200 -592 -155
-592 59 0 178 281 293 478 197z"/>
</g>
</svg>
