<!DOCTYPE svg PUBLIC "-//W3C//DTD SVG 20010904//EN"
 "http://www.w3.org/TR/2001/REC-SVG-20010904/DTD/svg10.dtd">
<svg version="1.0" xmlns="http://www.w3.org/2000/svg"
 viewBox="0 0 512.000000 512.000000"
 preserveAspectRatio="xMidYMid meet">
<metadata>
Created by potrace 1.16, written by Peter Selinger 2001-2019
</metadata>
<g transform="translate(0.000000,512.000000) scale(0.100000,-0.100000)"
fill="currentColor" stroke="none">
<path d="M1400 4840 c-599 -42 -648 -196 -211 -675 34 -38 176 -202 252 -291
263 -311 673 -782 709 -814 3 -3 59 -66 125 -140 137 -154 188 -210 264 -292
60 -64 60 -64 -4 -133 -15 -16 -57 -63 -93 -105 -36 -41 -83 -95 -106 -120
-108 -119 -226 -249 -257 -284 -19 -21 -38 -44 -44 -50 -5 -6 -49 -54 -96
-106 -47 -52 -140 -159 -205 -236 -65 -78 -173 -204 -239 -280 -66 -76 -133
-154 -148 -174 -16 -19 -57 -64 -91 -100 -476 -497 -473 -697 14 -740 534 -48
500 -59 877 275 87 77 171 152 188 167 16 14 47 41 67 60 20 18 112 101 204
183 187 168 496 447 504 455 3 3 48 43 100 90 52 46 142 130 200 186 58 55
137 129 175 164 168 153 569 548 598 589 90 131 70 157 -733 904 -113 106
-231 216 -264 247 -32 30 -64 60 -70 65 -6 6 -103 94 -215 195 -177 160 -258
232 -441 393 -19 17 -80 72 -136 122 -519 467 -530 472 -924 445z m348 -204
c58 -30 100 -63 225 -178 54 -50 110 -100 125 -112 23 -17 277 -240 292 -256
3 -3 66 -59 140 -125 273 -242 542 -488 785 -719 99 -94 209 -198 245 -231 55
-51 159 -150 413 -398 50 -48 50 -48 26 -74 -80 -89 -516 -512 -704 -684 -27
-25 -111 -101 -185 -169 -74 -68 -189 -174 -255 -235 -66 -62 -138 -127 -160
-146 -22 -18 -83 -72 -135 -119 -87 -77 -146 -130 -310 -274 -30 -27 -71 -62
-90 -79 -19 -17 -60 -53 -90 -81 -73 -67 -207 -186 -246 -219 -90 -75 -175
-91 -369 -67 -44 5 -127 14 -185 20 -231 24 -228 12 -55 220 101 122 301 356
354 415 25 28 94 106 153 175 59 69 167 196 242 283 110 129 198 228 331 371
326 352 495 555 495 598 0 49 -60 138 -194 288 -27 30 -84 93 -125 140 -183
204 -269 299 -326 360 -90 95 -141 153 -230 260 -44 52 -152 178 -240 280 -88
102 -185 214 -215 250 -30 36 -74 85 -97 110 -54 58 -259 313 -272 339 -17 32
16 42 189 61 244 27 409 26 468 -4z"/>
</g>
</svg>
