<!DOCTYPE svg PUBLIC "-//W3C//DTD SVG 20010904//EN"
 "http://www.w3.org/TR/2001/REC-SVG-20010904/DTD/svg10.dtd">
<svg version="1.0" xmlns="http://www.w3.org/2000/svg"
 viewBox="0 0 512.000000 512.000000"
 preserveAspectRatio="xMidYMid meet">
<metadata>
Created by potrace 1.16, written by Peter Selinger 2001-2019
</metadata>
<g transform="translate(0.000000,512.000000) scale(0.100000,-0.100000)"
fill="currentColor" stroke="none">
<path d="M3394 4840 c-71 -10 -153 -57 -259 -147 -116 -98 -385 -332 -406
-352 -26 -26 -99 -91 -184 -166 -44 -38 -130 -115 -190 -170 -61 -55 -153
-138 -205 -185 -116 -104 -193 -174 -285 -261 -38 -36 -106 -99 -150 -139 -44
-41 -109 -102 -145 -135 -687 -646 -711 -676 -651 -793 23 -45 318 -338 651
-647 41 -39 118 -111 170 -161 88 -84 137 -129 245 -225 22 -19 94 -85 160
-145 66 -60 179 -161 250 -224 72 -63 157 -139 190 -170 92 -86 159 -146 290
-260 66 -57 147 -129 180 -159 235 -217 298 -242 560 -221 423 33 492 48 558
118 103 108 30 264 -284 613 -155 171 -273 307 -473 544 -94 110 -172 202
-175 205 -3 3 -42 46 -86 95 -44 50 -145 162 -225 250 -80 88 -174 194 -210
235 -36 41 -93 106 -127 144 -78 85 -80 72 28 191 50 55 137 152 193 215 55
63 133 148 171 190 93 100 180 199 305 345 56 66 114 134 129 150 14 17 78 91
141 165 162 189 345 401 367 425 387 422 384 593 -12 654 -155 24 -427 35
-521 21z m431 -199 c182 -21 205 -26 205 -46 0 -29 -165 -228 -700 -844 -36
-41 -107 -124 -158 -185 -52 -61 -164 -187 -249 -281 -660 -721 -646 -698
-524 -855 44 -56 90 -110 150 -175 25 -28 64 -70 86 -95 54 -61 207 -230 276
-304 80 -87 272 -306 429 -491 74 -88 171 -200 215 -250 45 -49 121 -137 170
-195 50 -58 100 -116 111 -130 142 -164 205 -254 188 -270 -15 -14 -410 -60
-522 -60 -93 0 -167 33 -252 112 -37 33 -300 270 -405 363 -49 44 -92 82 -95
85 -3 3 -41 37 -85 75 -44 39 -82 72 -85 75 -3 3 -41 37 -85 75 -44 39 -100
88 -125 111 -25 22 -76 69 -115 104 -38 35 -106 97 -150 139 -63 61 -229 213
-301 276 -154 136 -679 649 -696 679 -9 17 1 31 78 105 49 46 150 143 224 215
270 261 528 502 920 861 98 89 230 207 275 246 22 19 65 57 95 85 30 29 134
121 231 206 96 84 222 195 279 246 175 155 229 166 615 123z"/>
</g>
</svg>
