<!DOCTYPE svg PUBLIC "-//W3C//DTD SVG 20010904//EN"
 "http://www.w3.org/TR/2001/REC-SVG-20010904/DTD/svg10.dtd">
<svg version="1.0" xmlns="http://www.w3.org/2000/svg"
 viewBox="0 0 512.000000 512.000000"
 preserveAspectRatio="xMidYMid meet">
<metadata>
Created by potrace 1.16, written by Peter Selinger 2001-2019
</metadata>
<g transform="translate(0.000000,512.000000) scale(0.100000,-0.100000)"
fill="currentColor" stroke="none">
<path d="M2469 4188 c-59 -42 -256 -243 -579 -588 -79 -85 -183 -195 -231
-245 -47 -49 -106 -112 -130 -140 -25 -27 -112 -124 -195 -215 -82 -91 -183
-203 -224 -250 -40 -47 -117 -132 -170 -190 -54 -58 -166 -184 -250 -280 -84
-96 -182 -206 -218 -245 -213 -230 -219 -260 -172 -780 43 -472 222 -471 739
3 104 96 262 233 521 452 96 81 274 237 395 346 122 110 263 237 315 283 52
46 128 113 168 149 86 77 118 102 127 102 4 0 55 -43 113 -97 142 -128 173
-155 267 -238 44 -38 109 -97 145 -131 86 -81 238 -213 695 -606 209 -179 391
-337 405 -350 150 -143 337 -261 414 -261 152 0 209 123 231 493 3 58 8 130
11 160 22 219 -29 301 -530 855 -45 50 -97 108 -115 130 -19 22 -52 60 -75 85
-22 25 -84 92 -136 150 -52 58 -97 107 -100 110 -3 3 -70 77 -150 165 -79 88
-172 189 -205 225 -34 36 -97 103 -140 150 -388 417 -697 734 -747 766 -56 36
-122 33 -179 -8z m297 -366 c105 -108 224 -233 264 -277 40 -44 123 -132 184
-195 179 -184 505 -541 891 -975 83 -92 155 -173 160 -179 6 -6 39 -45 74 -86
35 -41 85 -97 110 -125 92 -97 173 -201 193 -245 39 -84 -3 -650 -48 -650 -14
0 -107 69 -214 158 -36 30 -76 63 -90 75 -29 24 -173 149 -180 157 -3 3 -48
41 -100 85 -52 44 -149 127 -215 185 -66 58 -165 144 -220 189 -55 46 -194
170 -310 275 -182 167 -256 233 -434 391 -19 16 -39 35 -45 40 -214 199 -235
195 -555 -94 -121 -108 -319 -289 -436 -395 -97 -89 -200 -179 -320 -281 -113
-95 -280 -239 -365 -314 -120 -106 -257 -223 -369 -315 -53 -43 -112 -92 -131
-108 -98 -84 -101 -78 -131 212 -32 324 -26 373 60 480 30 38 214 244 231 260
3 3 53 59 110 125 57 66 107 122 110 125 3 3 59 66 125 140 66 74 122 137 125
140 3 3 36 41 75 85 38 44 72 82 75 85 3 3 32 34 64 70 33 36 89 97 126 135
36 39 113 122 170 185 291 321 794 840 815 840 6 0 96 -89 201 -198z"/>
</g>
</svg>
