<!DOCTYPE svg PUBLIC "-//W3C//DTD SVG 20010904//EN"
 "http://www.w3.org/TR/2001/REC-SVG-20010904/DTD/svg10.dtd">
<svg version="1.0" xmlns="http://www.w3.org/2000/svg"
 viewBox="0 0 512.000000 512.000000"
 preserveAspectRatio="xMidYMid meet">
<metadata>
Created by potrace 1.16, written by Peter Selinger 2001-2019
</metadata>
<g transform="translate(0.000000,512.000000) scale(0.100000,-0.100000)"
fill="currentColor" stroke="none">
<path d="M453 4209 c-77 -23 -126 -112 -143 -259 -69 -587 -61 -622 191 -895
30 -33 102 -114 159 -180 112 -129 171 -195 260 -290 30 -33 107 -118 170
-190 63 -71 160 -180 215 -240 55 -61 138 -153 185 -205 46 -52 130 -142 185
-200 55 -58 132 -139 170 -180 150 -162 256 -273 429 -448 304 -308 283 -311
659 83 105 110 229 241 277 290 67 70 306 326 365 391 6 6 51 55 101 110 233
254 453 499 598 664 16 19 71 80 121 136 427 474 469 546 451 764 -3 36 -8
112 -12 170 -31 545 -178 620 -566 289 -594 -507 -1174 -1011 -1208 -1049 -3
-3 -66 -59 -140 -125 -153 -136 -210 -188 -291 -262 -66 -62 -64 -62 -110 -20
-20 17 -85 75 -145 127 -60 52 -156 137 -214 190 -249 228 -439 395 -616 545
-213 180 -352 300 -528 459 -312 281 -449 360 -563 325z m226 -281 c69 -56
128 -105 131 -108 3 -3 68 -59 145 -125 77 -66 151 -130 165 -143 14 -13 108
-94 209 -180 212 -182 439 -380 527 -461 378 -350 588 -532 651 -564 80 -42
103 -27 478 307 105 93 240 215 300 271 61 56 133 121 160 146 28 24 52 46 55
49 3 3 61 52 130 110 69 57 127 107 130 110 3 4 88 78 190 165 102 87 219 189
261 226 42 37 112 97 155 131 43 35 108 87 143 116 101 81 108 74 131 -138 45
-427 38 -454 -182 -693 -50 -54 -100 -110 -112 -125 -18 -25 -243 -280 -256
-292 -3 -3 -76 -84 -161 -180 -218 -246 -482 -533 -688 -750 -97 -102 -203
-214 -236 -250 -51 -55 -181 -190 -387 -403 -38 -39 -51 -46 -65 -38 -29 16
-546 545 -678 695 -62 71 -215 238 -276 301 -108 114 -223 241 -354 390 -38
44 -72 82 -76 85 -3 3 -36 41 -74 85 -38 44 -110 125 -160 180 -49 56 -146
164 -215 240 -69 77 -135 151 -148 165 -109 117 -128 200 -102 434 6 50 15
134 21 186 17 158 17 160 41 160 12 0 76 -45 147 -102z"/>
</g>
</svg>
