<!DOCTYPE svg PUBLIC "-//W3C//DTD SVG 20010904//EN"
 "http://www.w3.org/TR/2001/REC-SVG-20010904/DTD/svg10.dtd">
<svg version="1.0" xmlns="http://www.w3.org/2000/svg"
 viewBox="0 0 512.000000 512.000000"
 preserveAspectRatio="xMidYMid meet">
<metadata>
Created by potrace 1.16, written by Peter Selinger 2001-2019
</metadata>
<g transform="translate(0.000000,512.000000) scale(0.100000,-0.100000)"
fill="currentColor" stroke="none">
<path d="M2965 4899 c-117 -12 -371 -91 -652 -202 -281 -112 -689 -417 -820
-614 -20 -29 -33 -193 -55 -692 -2 -35 -7 -65 -13 -66 -5 -1 -41 -8 -80 -15
-183 -32 -520 -176 -658 -281 -214 -162 -390 -428 -329 -497 27 -30 362 12
812 103 91 18 196 36 234 39 68 7 68 7 31 -61 -51 -90 -181 -309 -212 -355
-30 -45 -33 -86 -7 -104 11 -7 25 -19 32 -25 20 -17 79 -28 149 -29 61 0 61 0
68 -65 5 -39 3 -76 -4 -96 -10 -28 -8 -34 20 -61 31 -31 31 -31 10 -59 -27
-36 -28 -28 20 -125 41 -82 41 -84 29 -135 -33 -138 82 -319 204 -319 67 0
322 76 408 121 23 13 108 -181 115 -266 5 -53 11 -65 48 -105 48 -53 116 -166
146 -243 18 -46 26 -56 51 -61 50 -10 53 -9 114 62 128 147 405 375 589 485
94 56 416 217 434 217 20 0 69 39 76 60 4 12 -11 52 -40 109 -25 50 -45 97
-45 105 0 21 -51 58 -69 50 -33 -13 -43 -8 -57 31 -26 68 -27 75 -13 91 7 8
27 57 45 107 18 51 49 136 69 191 40 111 71 228 79 299 6 55 12 67 32 67 8 0
14 7 14 15 0 19 15 19 71 0 53 -18 302 -70 379 -80 30 -4 92 -15 136 -26 408
-93 609 -45 461 112 -54 57 -119 111 -207 169 -8 5 -31 20 -51 33 -81 54 -319
183 -423 229 -61 28 -116 54 -122 59 -5 4 -55 26 -109 48 l-99 39 1 163 c5
586 -139 1058 -420 1370 -175 194 -233 225 -392 208z"/>
</g>
</svg>
