<!DOCTYPE svg PUBLIC "-//W3C//DTD SVG 20010904//EN"
 "http://www.w3.org/TR/2001/REC-SVG-20010904/DTD/svg10.dtd">
<svg version="1.0" xmlns="http://www.w3.org/2000/svg"
 viewBox="0 0 512.000000 512.000000"
 preserveAspectRatio="xMidYMid meet">
<metadata>
Created by potrace 1.16, written by Peter Selinger 2001-2019
</metadata>
<g transform="translate(0.000000,512.000000) scale(0.100000,-0.100000)"
fill="currentColor" stroke="none">
<path d="M2429 4627 c-405 -246 -537 -576 -398 -1002 66 -199 69 -279 17 -380
-43 -83 -118 -134 -102 -69 42 168 -202 494 -370 494 -68 0 -76 -30 -46 -175
28 -136 0 -225 -127 -408 -119 -170 -137 -215 -137 -342 0 -120 28 -197 97
-272 51 -55 104 -83 157 -83 70 0 64 34 -21 128 -133 146 -127 272 24 475 113
152 186 341 162 417 -12 37 19 21 45 -23 51 -87 62 -127 68 -250 6 -151 13
-162 104 -161 181 3 338 197 338 419 0 71 -23 166 -79 328 -82 235 -40 436
127 610 62 64 62 64 62 -80 0 -218 42 -311 227 -502 125 -129 142 -138 161
-82 18 51 -17 130 -103 236 -115 140 -147 222 -146 372 0 94 5 120 52 280 26
86 -29 120 -112 70z M3099 4261 c-91 -59 -158 -147 -194 -260 -31 -95 -16
-183 66 -406 26 -71 32 -236 11 -297 -43 -123 128 -102 273 33 181 170 191
362 32 598 -77 114 -94 181 -72 284 16 75 -39 98 -116 48z m1 -268 c12 -35 62
-135 80 -158 84 -109 92 -243 23 -349 -52 -79 -73 -76 -73 8 0 51 -11 97 -50
215 -55 164 -58 193 -33 270 19 60 37 65 53 14z M3790 3512 c-85 -41 -215
-203 -250 -312 -20 -61 -20 -256 0 -296 58 -116 96 -82 103 91 5 110 14 146
53 220 30 55 38 53 53 -12 15 -65 38 -114 104 -221 112 -181 95 -313 -57 -445
-124 -108 -21 -170 113 -69 180 135 210 348 79 553 -107 166 -123 245 -93 437
12 71 -29 92 -105 54z M2459 3057 c-38 -25 -80 -83 -99 -136 -26 -73 -91 -158
-177 -236 -265 -236 -309 -438 -130 -605 159 -149 193 -187 227 -253 61 -118
101 -151 188 -150 63 0 100 12 266 88 57 26 229 85 248 85 24 0 141 64 190
104 174 141 211 283 136 511 -20 61 -42 130 -48 155 -52 201 -75 226 -245 260
-128 26 -193 53 -320 134 -111 72 -176 83 -236 43z m80 -270 c90 -201 105
-301 70 -474 -32 -161 4 -194 124 -110 83 58 107 67 180 67 102 0 138 46 74
94 -24 17 -44 21 -120 22 -92 2 -92 2 -90 45 3 106 -21 223 -69 328 -36 79
-39 77 57 30 82 -40 134 -57 243 -80 79 -17 80 -18 103 -134 18 -95 25 -120
61 -223 52 -150 -52 -285 -262 -342 -77 -21 -181 -62 -290 -113 -109 -52 -166
-63 -181 -37 -5 8 -25 50 -45 92 -38 83 -80 132 -165 195 -155 115 -158 213
-10 348 147 134 206 201 244 273 42 79 49 81 76 19z M3594 2231 c-53 -24 -78
-50 -157 -163 -36 -51 -93 -122 -127 -158 -156 -165 -161 -214 -32 -369 40
-47 107 -133 150 -190 115 -156 172 -176 378 -132 67 15 125 19 229 18 204 -3
239 23 305 223 10 30 30 82 45 115 111 241 43 389 -225 489 -41 15 -89 34
-107 42 -17 8 -34 14 -37 14 -3 0 -29 11 -58 24 -236 107 -291 120 -364 87z
m132 -157 c22 -9 72 -32 112 -50 41 -19 75 -34 78 -34 2 0 23 -9 47 -19 23
-10 78 -33 122 -51 112 -45 162 -76 181 -112 18 -35 17 -40 -31 -163 -13 -33
-36 -94 -51 -135 -43 -119 -36 -115 -230 -115 -142 0 -164 2 -160 15 55 177
60 234 22 251 -50 23 -104 -33 -139 -141 -53 -161 -60 -162 -154 -32 -39 53
-94 123 -122 155 -63 72 -64 65 12 145 73 77 106 121 135 177 62 122 97 143
178 109z M3888 1799 c-83 -48 -22 -109 109 -109 120 0 168 53 91 100 -37 22
-168 28 -200 9z M1510 2230 c-53 -10 -159 -43 -320 -100 -63 -22 -120 -40
-127 -40 -107 0 -221 -110 -244 -235 -23 -126 -33 -156 -84 -266 -104 -221
-81 -273 174 -397 122 -59 169 -86 266 -157 120 -88 193 -91 353 -18 39 18 74
33 77 33 2 0 28 11 57 24 29 13 96 40 149 60 113 43 157 82 228 205 162 276
155 370 -36 503 -80 55 -115 102 -177 233 -73 155 -138 187 -316 155z m121
-150 c10 -6 40 -52 65 -103 76 -151 149 -230 273 -299 41 -23 40 -52 -4 -142
-87 -177 -130 -220 -265 -271 -41 -15 -119 -48 -173 -72 -120 -53 -118 -55
-90 59 32 130 20 179 -70 294 -84 108 -79 119 83 181 133 51 171 82 154 127
-10 25 -40 19 -159 -29 -122 -50 -147 -53 -243 -27 -69 18 -142 73 -142 107 0
17 4 19 150 68 58 19 132 45 165 58 53 20 187 55 223 58 7 0 22 -4 33 -9z
m-611 -331 c44 -38 115 -75 163 -84 32 -6 37 -11 37 -36 0 -37 26 -101 67
-166 40 -64 41 -91 6 -199 -32 -96 -35 -97 -105 -44 -52 39 -179 105 -252 131
-90 32 -101 66 -51 167 36 74 70 170 81 228 8 42 10 42 54 3z M2755 1621 c-46
-8 -58 -14 -169 -85 -44 -28 -139 -80 -211 -115 -286 -140 -378 -261 -378
-496 -1 -192 66 -267 302 -339 497 -153 525 -153 719 -6 51 39 132 97 181 130
261 176 285 277 119 509 -38 53 -90 138 -116 190 -91 183 -233 251 -447 212z
m185 -162 c58 -18 82 -45 140 -162 30 -59 80 -142 112 -185 94 -124 91 -142
-45 -236 -49 -34 -116 -82 -150 -109 -191 -147 -192 -147 -426 -86 -378 99
-421 124 -421 245 0 63 -6 60 85 34 22 -7 114 -15 205 -19 165 -6 165 -6 197
-80 55 -129 95 -159 143 -111 29 29 25 72 -18 164 -45 95 -45 95 18 161 111
116 140 174 99 195 -34 19 -71 -5 -159 -101 -62 -67 -89 -90 -113 -94 -64 -10
-400 9 -405 24 -10 30 102 115 254 190 82 41 173 90 202 109 113 71 191 88
282 61z M3752 1063 c-108 -38 -220 -301 -161 -376 65 -83 332 -86 491 -6 222
112 -86 469 -330 382z m115 -145 c40 -17 123 -87 123 -104 0 -7 -12 -16 -27
-20 -16 -3 -44 -10 -63 -15 -56 -14 -170 -11 -176 5 -6 15 49 114 74 134 20
15 34 15 69 0z"/>
</g>
</svg>
