<!DOCTYPE svg PUBLIC "-//W3C//DTD SVG 20010904//EN"
 "http://www.w3.org/TR/2001/REC-SVG-20010904/DTD/svg10.dtd">
<svg version="1.0" xmlns="http://www.w3.org/2000/svg"
 viewBox="0 0 512.000000 512.000000"
 preserveAspectRatio="xMidYMid meet">
<metadata>
Created by potrace 1.16, written by Peter Selinger 2001-2019
</metadata>
<g transform="translate(0.000000,512.000000) scale(0.100000,-0.100000)"
fill="currentColor" stroke="none">
<path d="M2505 4376 c-109 -35 -256 -121 -381 -223 -23 -18 -48 -33 -56 -33
-8 0 -46 -23 -84 -51 -38 -27 -89 -64 -113 -82 -180 -130 -536 -472 -606 -581
-108 -169 -128 -272 -123 -640 3 -280 3 -280 -57 -292 -425 -87 -695 -406
-811 -956 -101 -482 97 -771 544 -795 165 -9 498 41 687 102 22 7 92 30 155
50 302 96 692 248 1224 474 208 89 449 189 535 222 86 34 165 65 176 69 100
41 271 102 485 174 418 140 593 247 711 436 65 105 79 146 79 241 0 395 -726
597 -1232 343 -81 -41 -73 -41 -88 -1 -31 83 -145 414 -179 522 -22 66 -69
214 -106 328 -113 352 -235 555 -377 628 -21 11 -38 24 -38 29 0 54 -220 77
-345 36z m291 -128 c113 -76 270 -332 309 -503 9 -38 32 -124 51 -190 19 -66
39 -136 44 -155 32 -115 75 -247 130 -400 110 -305 109 -281 13 -366 -43 -37
-127 -116 -188 -175 -170 -166 -164 -163 -429 -258 -368 -134 -912 -201 -1235
-153 -74 11 -139 26 -147 33 -9 10 -18 81 -29 244 -9 127 -18 241 -20 255 -24
135 -16 419 14 525 70 241 31 185 321 464 414 398 667 582 948 691 109 42 141
41 218 -12z m1524 -1503 c129 -24 197 -46 257 -80 208 -123 180 -312 -77 -506
-92 -69 -268 -139 -636 -252 -130 -40 -325 -113 -493 -184 -158 -66 -185 -78
-366 -160 -55 -25 -113 -51 -130 -58 -16 -7 -70 -31 -120 -53 -282 -124 -724
-302 -752 -302 -9 0 36 39 98 86 215 163 354 290 774 704 401 395 591 560 780
678 187 116 454 167 665 127z m-3156 -417 c3 -13 6 -45 6 -72 0 -27 4 -88 10
-135 5 -47 14 -138 19 -201 21 -240 59 -279 315 -327 103 -19 530 -25 669 -9
112 12 116 17 -197 -247 -355 -300 -755 -465 -1101 -455 -83 3 -152 10 -170
17 -242 105 -317 214 -316 463 2 392 217 768 521 911 147 69 235 88 244 55z
m1536 -316 c0 -32 -194 -212 -245 -227 -214 -62 -688 -87 -926 -49 -160 25
-179 41 -179 151 0 63 -19 60 165 29 280 -48 716 -12 1105 93 45 12 80 13 80
3z M2580 4143 c-36 -30 -96 -82 -135 -115 -38 -33 -151 -140 -250 -237 -99
-98 -225 -213 -280 -257 -179 -143 -285 -221 -285 -210 0 12 212 267 271 326
71 72 78 102 25 116 -38 9 -230 -147 -403 -328 -262 -274 2 -417 306 -166 104
86 558 509 809 753 89 87 99 113 62 153 -30 32 -48 27 -120 -35z"/>
</g>
</svg>
