<!DOCTYPE svg PUBLIC "-//W3C//DTD SVG 20010904//EN"
 "http://www.w3.org/TR/2001/REC-SVG-20010904/DTD/svg10.dtd">
<svg version="1.0" xmlns="http://www.w3.org/2000/svg"
 viewBox="0 0 512.000000 512.000000"
 preserveAspectRatio="xMidYMid meet">
<metadata>
Created by potrace 1.16, written by Peter Selinger 2001-2019
</metadata>
<g transform="translate(0.000000,512.000000) scale(0.100000,-0.100000)"
fill="currentColor" stroke="none">
<path d="M1740 4790 c-688 -100 -1239 -655 -1349 -1358 -13 -88 -15 -303 -2
-369 6 -26 15 -75 21 -108 51 -267 212 -572 411 -775 232 -238 490 -378 839
-458 105 -23 462 -23 570 1 204 45 367 108 502 193 49 31 45 34 200 -123 126
-128 126 -128 130 -208 4 -102 32 -144 237 -360 73 -78 128 -138 246 -270 44
-50 103 -115 130 -145 28 -30 82 -91 120 -135 133 -155 266 -279 330 -310 335
-159 734 244 576 582 -35 75 -182 226 -765 788 -326 315 -363 341 -452 319
-21 -5 -39 9 -142 113 -176 178 -164 145 -95 260 551 921 75 2107 -937 2333
-30 7 -71 17 -90 22 -46 12 -410 19 -480 8z m360 -161 c627 -77 1045 -467
1202 -1119 22 -94 17 -434 -9 -546 -122 -521 -505 -939 -966 -1055 -23 -5 -71
-18 -107 -27 -96 -24 -446 -23 -553 1 -529 119 -927 497 -1075 1022 -257 908
560 1842 1508 1724z m1058 -2501 c32 -35 83 -90 114 -123 l57 -61 -62 -60
c-113 -109 -86 -112 -226 26 -66 66 -121 122 -121 125 0 11 156 155 168 155 8
0 39 -28 70 -62z m400 -255 c15 -9 128 -116 252 -238 124 -122 283 -277 355
-346 384 -367 397 -382 412 -475 26 -163 -200 -375 -345 -325 -80 28 -198 147
-531 536 -57 66 -126 145 -155 175 -140 150 -284 308 -304 334 -42 55 -35 69
123 219 156 147 152 145 193 120z M1730 4430 c-318 -60 -588 -233 -773 -497
-56 -81 -147 -256 -147 -285 0 -9 -4 -19 -9 -22 -5 -3 -11 -18 -14 -33 -4 -16
-11 -50 -17 -78 -38 -176 -38 -369 -1 -545 17 -83 79 -243 113 -292 10 -14 18
-29 18 -32 0 -6 70 -118 79 -126 3 -3 19 -22 34 -42 55 -74 228 -228 255 -228
6 0 12 -4 14 -9 5 -14 169 -97 233 -118 177 -59 234 -68 425 -68 134 0 192 4
250 18 41 10 91 22 110 26 185 43 411 189 538 349 34 42 67 82 72 89 6 7 10
15 10 19 0 3 8 18 19 32 10 15 35 61 56 102 21 41 41 83 46 92 5 10 9 26 9 36
0 10 4 22 9 28 17 18 54 182 66 294 18 163 -3 358 -56 515 -101 298 -318 559
-559 671 -25 12 -60 29 -79 38 -19 9 -42 16 -52 16 -10 0 -20 4 -23 9 -3 5
-18 11 -33 14 -16 3 -72 15 -126 26 -127 27 -328 27 -467 1z m480 -191 c41
-11 87 -23 103 -26 15 -3 30 -9 33 -14 3 -5 12 -9 19 -9 16 0 168 -88 202
-117 11 -10 39 -33 62 -51 180 -148 330 -520 318 -792 -7 -165 -28 -258 -93
-420 -77 -193 -281 -408 -459 -484 -22 -10 -48 -22 -57 -27 -10 -5 -27 -9 -37
-9 -11 0 -22 -4 -25 -9 -3 -5 -20 -11 -38 -14 -18 -3 -73 -13 -123 -21 -49 -9
-137 -15 -195 -15 -91 0 -135 6 -283 36 -15 3 -30 9 -33 14 -3 5 -12 9 -20 9
-83 0 -334 188 -456 341 -58 72 -148 242 -148 279 0 10 -4 21 -9 24 -5 3 -12
23 -15 43 -4 21 -11 63 -16 93 -61 340 56 685 316 931 82 77 196 149 319 200
160 67 460 85 635 38z M1859 4075 c-114 -62 -28 -165 138 -165 225 0 449 -148
545 -360 27 -59 58 -162 58 -192 0 -87 44 -168 90 -168 96 0 114 94 58 305
-65 247 -276 473 -516 553 -135 45 -316 58 -373 27z"/>
</g>
</svg>
