<!DOCTYPE svg PUBLIC "-//W3C//DTD SVG 20010904//EN"
 "http://www.w3.org/TR/2001/REC-SVG-20010904/DTD/svg10.dtd">
<svg version="1.0" xmlns="http://www.w3.org/2000/svg"
 viewBox="0 0 512.000000 512.000000"
 preserveAspectRatio="xMidYMid meet">
<metadata>
Created by potrace 1.16, written by Peter Selinger 2001-2019
</metadata>
<g transform="translate(0.000000,512.000000) scale(0.100000,-0.100000)"
fill="currentColor" stroke="none">
<path d="M3410 4810 c-213 -20 -307 -37 -395 -69 -27 -10 -79 -24 -115 -29
-265 -44 -447 -69 -725 -97 -263 -27 -408 -46 -740 -95 -424 -63 -516 -104
-600 -270 -76 -150 -90 -291 -56 -565 6 -44 15 -118 20 -165 5 -47 22 -161 36
-255 14 -93 30 -197 35 -230 5 -33 18 -116 29 -185 60 -371 80 -525 111 -860
16 -170 41 -358 70 -520 5 -25 13 -72 18 -105 6 -33 18 -98 26 -145 20 -107
41 -241 56 -350 45 -332 82 -418 212 -494 119 -68 230 -79 508 -46 47 6 126
14 175 19 93 9 407 43 555 60 47 6 130 15 185 21 93 10 245 27 445 49 47 6
132 15 190 21 213 23 584 67 665 80 33 5 77 14 98 19 165 40 198 237 58 349
-111 90 -111 90 -111 187 0 94 13 156 39 179 9 8 38 34 64 57 77 68 82 83 81
239 -1 116 -14 225 -38 301 -59 193 -78 264 -96 364 -29 155 -39 208 -50 275
-5 30 -16 97 -25 147 -8 51 -20 123 -26 160 -12 79 -16 99 -64 378 -20 116
-40 237 -45 270 -40 293 -50 385 -60 555 -39 685 -113 789 -530 750z m224
-153 c68 -21 90 -72 121 -276 16 -113 20 -201 7 -201 -14 0 -109 105 -150 167
-68 101 -101 122 -247 156 -99 24 -216 91 -201 116 16 26 405 57 470 38z
m-579 -148 c90 -93 215 -159 300 -159 47 0 94 -36 148 -115 81 -119 135 -165
238 -204 25 -9 27 -15 38 -113 18 -157 61 -477 71 -528 5 -25 14 -76 20 -115
6 -38 20 -124 31 -190 11 -66 24 -145 29 -175 8 -48 40 -229 71 -400 5 -30 14
-77 19 -105 4 -27 16 -84 25 -125 32 -146 34 -132 -27 -192 -70 -69 -103 -126
-128 -222 -23 -92 -41 -125 -83 -152 -147 -94 -178 -117 -200 -146 -34 -45
-62 -97 -71 -131 -8 -35 -29 -43 -136 -51 -47 -4 -116 -11 -155 -16 -38 -5
-124 -14 -190 -20 -325 -30 -651 -72 -895 -115 -41 -7 -109 -18 -150 -25 -265
-41 -375 -61 -438 -81 -78 -24 -123 -53 -182 -113 -57 -59 -55 -61 -69 42 -21
144 -40 274 -51 335 -10 56 -20 115 -39 232 -5 33 -12 85 -16 115 -3 30 -10
87 -15 125 -5 39 -14 117 -20 175 -6 58 -15 137 -20 175 -5 39 -17 124 -25
190 -9 66 -20 147 -25 180 -5 33 -14 94 -19 135 -12 84 -56 366 -71 450 -15
86 -37 227 -50 315 -6 44 -15 107 -20 140 -72 490 0 663 295 706 33 5 85 13
115 18 239 40 528 78 790 106 354 37 431 46 645 76 83 12 152 23 154 25 19 18
61 -1 106 -47z m1087 -2569 c24 -102 57 -328 58 -388 0 -66 -76 -92 -360 -121
-47 -5 -97 -12 -112 -16 -49 -12 -35 27 29 84 31 28 61 51 66 51 5 0 35 18 67
41 87 61 130 132 151 247 21 117 83 179 101 102z m-142 -655 c0 -2 -5 -26 -11
-54 -12 -55 -3 -51 -159 -71 -47 -5 -119 -14 -160 -19 -100 -13 -224 -28 -340
-41 -354 -42 -505 -74 -498 -108 4 -23 177 -29 363 -12 319 28 592 57 692 72
84 13 103 4 103 -46 0 -41 -16 -56 -59 -56 -19 0 -62 -4 -95 -9 -34 -6 -126
-17 -206 -26 -140 -15 -202 -22 -375 -44 -44 -6 -152 -18 -240 -26 -88 -9
-196 -20 -240 -25 -44 -5 -127 -14 -185 -20 -58 -6 -161 -18 -230 -26 -69 -8
-168 -19 -220 -25 -52 -5 -129 -14 -170 -19 -351 -43 -423 -13 -390 162 16 83
47 98 265 129 146 20 232 34 495 79 30 5 93 14 140 19 47 6 121 15 165 21 44
5 127 14 185 20 58 6 146 15 195 21 50 5 133 13 185 18 52 5 169 19 260 30 91
12 208 26 260 32 52 6 120 14 150 18 66 10 120 13 120 6z m173 -442 c66 -65
45 -90 -88 -105 -211 -23 -259 -28 -375 -43 -145 -18 -251 -31 -370 -45 -47
-5 -141 -16 -210 -25 -69 -8 -174 -20 -235 -25 -243 -24 -376 -38 -600 -65
-71 -9 -166 -20 -210 -25 -44 -5 -159 -18 -255 -30 -188 -23 -238 -21 -308 13
-110 51 -166 172 -128 277 12 32 44 51 39 23 -6 -29 39 -121 74 -154 67 -62
140 -81 269 -68 43 5 126 13 184 19 151 15 482 50 570 61 197 23 489 55 630
69 199 20 291 30 485 55 110 14 235 30 277 35 104 12 151 26 173 50 25 28 36
25 78 -17z M1244 4143 c-17 -17 -15 -119 6 -313 5 -47 14 -134 20 -195 14
-139 37 -346 50 -450 6 -44 15 -116 20 -160 11 -82 44 -314 61 -420 6 -33 14
-87 19 -120 5 -33 20 -127 35 -210 14 -82 30 -172 35 -200 4 -27 20 -117 35
-200 14 -82 30 -177 35 -210 5 -33 16 -96 25 -140 8 -44 15 -85 15 -91 0 -28
41 -64 61 -54 27 15 21 159 -20 480 -6 41 -15 125 -21 185 -22 219 -53 490
-70 610 -5 39 -14 106 -20 150 -13 94 -49 318 -91 570 -17 99 -34 205 -39 235
-74 467 -107 581 -156 533z M3010 3915 c-8 -2 -62 -8 -120 -14 -342 -37 -350
-38 -715 -92 -292 -44 -318 -66 -316 -262 0 -60 5 -137 11 -171 70 -399 82
-412 360 -409 162 2 257 9 495 38 239 30 481 71 565 98 54 17 70 35 70 78 0
28 5 39 18 44 60 18 56 149 -13 450 -49 215 -147 281 -355 240z m207 -145 c4
-86 28 -240 63 -415 26 -130 28 -122 -32 -130 -29 -3 -75 -10 -103 -15 -46 -8
-113 -17 -305 -41 -482 -60 -486 -61 -644 -89 -137 -24 -134 -26 -146 66 -25
179 -74 436 -91 482 -14 36 -8 39 118 46 182 11 421 39 768 91 94 14 204 30
245 36 41 6 77 12 79 15 21 20 46 -4 48 -46z"/>
</g>
</svg>
