<?xml version="1.0" standalone="no"?>
<!DOCTYPE svg PUBLIC "-//W3C//DTD SVG 20010904//EN"
 "http://www.w3.org/TR/2001/REC-SVG-20010904/DTD/svg10.dtd">
<svg version="1.0" xmlns="http://www.w3.org/2000/svg"
 width="500.000000pt" height="500.000000pt" viewBox="0 0 500.000000 500.000000"
 preserveAspectRatio="xMidYMid meet">
<metadata>
Created by potrace 1.16, written by Peter Selinger 2001-2019
</metadata>
<g transform="translate(0.000000,500.000000) scale(0.100000,-0.100000)"
fill="#000000" stroke="none">
<path d="M1800 4214 c-8 -2 -112 -8 -230 -14 -391 -19 -565 -46 -712 -113 -99
-45 -113 -66 -105 -155 4 -37 8 -78 11 -92 24 -135 62 -463 65 -565 1 -33 4
-73 6 -90 1 -16 6 -136 10 -265 8 -250 2 -346 -51 -880 -7 -80 -16 -167 -18
-195 -2 -27 -9 -95 -16 -151 -6 -55 -10 -172 -8 -260 4 -185 12 -211 106 -314
63 -70 145 -114 254 -135 40 -8 92 -21 116 -29 83 -30 450 -104 576 -116 430
-43 1446 39 1658 133 114 51 144 86 229 275 21 48 31 58 84 84 33 17 105 61
160 97 55 37 141 93 190 126 206 134 342 276 502 524 106 165 129 234 148 446
12 134 13 208 5 231 -5 13 -12 52 -15 86 -8 74 -40 199 -65 248 -59 117 -90
162 -164 234 -108 104 -157 136 -307 195 -169 68 -290 99 -438 113 l-123 13 6
75 c4 41 14 98 22 126 8 28 15 66 16 86 1 43 -54 151 -93 178 -66 47 -273 75
-699 95 -273 12 -1077 19 -1120 9z m720 -229 c41 -3 151 -10 243 -16 93 -5
185 -12 205 -15 20 -3 91 -9 157 -14 85 -6 163 -20 268 -48 81 -22 150 -41
152 -44 3 -2 -5 -56 -16 -119 -25 -141 -48 -344 -49 -425 0 -91 12 -98 100
-54 19 9 49 85 49 128 1 17 6 32 11 32 6 0 10 7 10 15 0 11 11 15 39 15 225 0
661 -160 792 -291 82 -81 118 -172 129 -319 10 -130 -1 -210 -45 -325 -18 -49
-36 -101 -40 -115 -3 -14 -24 -63 -47 -110 -22 -47 -50 -104 -61 -128 -12 -24
-48 -73 -80 -110 -33 -37 -77 -89 -98 -115 -74 -93 -224 -202 -407 -295 -183
-93 -176 -92 -192 -40 -28 91 -55 106 -85 47 -11 -21 -15 -68 -15 -193 0 -213
-7 -234 -94 -278 -96 -49 -311 -87 -581 -103 -55 -3 -194 -13 -310 -22 -362
-27 -675 -7 -982 61 -62 14 -136 28 -165 32 -49 6 -260 71 -355 109 -36 14
-42 21 -46 53 -3 20 -13 70 -22 110 -18 77 -19 59 35 582 6 52 20 153 31 224
36 218 31 665 -12 986 -10 80 -21 163 -24 185 -3 22 -8 94 -10 160 -5 109 -27
304 -41 360 -3 13 -1 26 5 29 16 10 253 33 476 46 110 6 211 13 225 15 32 4
752 -4 850 -10z M3840 3209 c-88 -13 -216 -55 -262 -87 -72 -50 -80 -63 -88
-154 -5 -46 -11 -94 -13 -108 -3 -14 -9 -86 -12 -161 -3 -75 -8 -148 -11 -163
-7 -42 20 -624 30 -634 2 -2 30 6 62 18 32 11 65 20 72 20 8 0 28 7 45 14 18
8 61 22 96 31 152 39 227 85 417 260 163 150 244 291 252 441 5 97 -11 152
-91 314 -38 75 -61 111 -85 127 -45 30 -176 71 -248 78 -33 3 -70 7 -84 9 -14
1 -50 -1 -80 -5z m264 -179 c36 -13 66 -26 66 -30 0 -5 16 -32 36 -61 112
-166 109 -285 -13 -452 -85 -115 -309 -281 -470 -346 l-68 -28 -7 56 c-3 31
-9 146 -12 256 -4 110 -9 216 -11 235 -3 19 -7 89 -11 155 l-5 121 98 51 c54
28 104 49 111 46 6 -3 12 0 12 6 0 28 181 22 274 -9z M2998 1724 c-3 -2 -63
-7 -134 -10 -71 -2 -151 -7 -179 -10 -27 -3 -73 -7 -102 -9 -72 -5 -157 -23
-179 -39 -15 -12 -16 -16 -5 -30 22 -27 116 -21 441 30 116 18 180 37 180 54
0 11 -15 21 -22 14z M2980 1577 c-3 -3 -75 -8 -160 -11 -215 -9 -210 -9 -210
-18 0 -4 -3 -7 -7 -6 -18 5 -384 -26 -388 -32 -3 -4 2 -13 10 -20 25 -21 530
-19 621 2 101 24 169 51 169 68 0 14 -26 26 -35 17z M3005 1389 c-22 -5 -96
-11 -165 -14 -147 -6 -455 -25 -483 -31 -25 -4 -227 -13 -406 -18 -113 -3
-136 -6 -147 -21 -21 -28 -2 -58 42 -68 45 -10 496 -2 689 12 231 17 553 103
529 142 -6 10 -4 10 -59 -2z"/>
</g>
</svg>
