<!DOCTYPE svg PUBLIC "-//W3C//DTD SVG 20010904//EN"
 "http://www.w3.org/TR/2001/REC-SVG-20010904/DTD/svg10.dtd">
<svg version="1.0" xmlns="http://www.w3.org/2000/svg"
 viewBox="0 0 512.000000 512.000000"
 preserveAspectRatio="xMidYMid meet">
<metadata>
Created by potrace 1.16, written by Peter Selinger 2001-2019
</metadata>
<g transform="translate(0.000000,512.000000) scale(0.100000,-0.100000)"
fill="currentColor" stroke="none">
<path d="M2477 4736 c-147 -55 -202 -223 -128 -392 20 -44 20 -44 -52 -65
-253 -74 -330 -186 -167 -243 65 -22 65 -22 68 -63 3 -34 0 -42 -18 -48 -32
-10 -76 -52 -90 -84 -11 -27 -18 -30 -68 -36 -324 -35 -492 -211 -533 -557 -5
-46 -14 -121 -19 -168 -6 -47 -15 -119 -20 -160 -11 -80 -24 -188 -40 -322 -5
-46 -14 -121 -20 -168 -5 -47 -15 -123 -20 -170 -22 -190 -30 -252 -49 -400
-45 -341 -16 -474 139 -631 78 -79 125 -109 225 -148 33 -12 66 -26 74 -30 12
-6 14 -30 12 -117 -2 -109 -2 -109 -61 -162 -115 -103 -114 -212 3 -270 336
-166 1202 -177 1654 -20 155 54 174 185 44 299 -50 44 -50 44 -51 149 -2 136
-3 130 19 130 99 0 305 154 378 281 60 107 81 290 54 473 -14 88 -32 229 -60
466 -6 47 -15 123 -21 170 -5 47 -26 225 -45 395 -52 464 -55 486 -67 540 -50
230 -269 414 -495 415 -55 0 -59 3 -96 60 -12 19 -39 44 -60 55 -67 36 -51
106 28 118 194 30 75 188 -193 257 -35 9 -42 15 -37 28 74 189 42 341 -86 407
-45 24 -153 29 -202 11z m143 -111 c73 -38 91 -100 60 -206 -30 -101 -29 -100
-119 -97 -76 3 -76 3 -101 53 -79 160 23 321 160 250z m59 -436 c228 -37 201
-49 -113 -49 -326 0 -338 4 -131 49 57 13 167 13 244 0z m116 -207 c0 -32 0
-32 -227 -35 -259 -3 -248 -4 -248 32 0 40 -8 39 243 37 232 -2 232 -2 232
-34z m69 -172 c21 -5 43 -13 48 -18 11 -11 37 -258 38 -355 l0 -67 -387 2
-388 3 3 90 c5 181 22 308 43 330 31 32 514 43 643 15z m-799 -177 c-10 -75
-13 -80 -53 -88 -160 -30 -227 -118 -257 -340 -25 -181 -49 -380 -65 -530 -6
-55 -15 -136 -20 -180 -123 -988 -122 -964 -17 -1069 50 -50 181 -116 228
-116 8 0 24 -6 34 -14 28 -20 -76 -130 -114 -121 -125 31 -278 147 -325 245
-53 109 -55 170 -16 475 14 106 40 341 60 535 6 58 15 141 20 185 5 44 14 121
20 170 59 511 68 568 111 662 59 132 205 229 347 232 53 1 53 1 47 -46z m1126
33 c130 -40 212 -105 263 -210 42 -86 58 -175 96 -531 16 -150 107 -961 131
-1165 34 -288 -37 -443 -246 -540 -124 -58 -121 -58 -182 8 -55 59 -56 82 -2
82 40 0 178 69 227 114 71 63 91 196 63 401 -5 38 -15 115 -21 170 -6 55 -15
134 -20 175 -5 41 -13 113 -19 160 -6 47 -15 123 -21 170 -5 47 -26 222 -45
390 -57 501 -57 501 -126 569 -39 40 -78 60 -154 81 -60 17 -60 17 -65 74 -3
32 -3 59 -1 62 9 9 78 3 122 -10z m-1151 -260 c0 -7 -11 -23 -25 -36 -63 -59
-10 -120 103 -120 62 0 62 0 62 -62 0 -63 0 -63 -54 -110 -60 -53 -86 -99 -86
-153 0 -20 -20 -96 -44 -168 -24 -73 -50 -154 -56 -180 -8 -30 -22 -54 -36
-63 -30 -20 -37 -41 -22 -67 9 -16 12 -81 10 -242 -5 -280 13 -360 107 -486
33 -43 38 -56 30 -72 -26 -47 22 -90 129 -118 48 -12 52 -15 52 -43 -1 -96
-135 -116 -325 -48 -184 65 -211 119 -177 357 15 109 29 220 42 340 13 122 24
219 50 435 10 91 33 284 50 430 42 352 46 367 135 409 41 20 55 19 55 -3z
m1137 -22 c53 -40 61 -68 93 -329 6 -49 15 -121 20 -160 5 -38 14 -113 20
-165 6 -52 18 -141 26 -198 8 -57 26 -208 39 -336 27 -255 40 -372 54 -483 23
-182 -28 -238 -282 -306 -116 -31 -226 7 -227 79 0 28 3 31 53 43 112 29 155
69 127 121 -10 18 -7 26 19 56 102 116 149 390 111 644 -6 41 -4 61 6 77 20
32 17 51 -10 77 -16 14 -32 49 -45 97 -11 41 -36 121 -56 178 -19 58 -35 124
-35 148 0 59 -29 112 -90 163 -51 43 -51 43 -48 99 3 56 3 56 68 61 113 9 149
54 95 118 -49 58 -7 69 62 16z m-364 -140 c14 -4 17 -17 17 -71 0 -81 19 -122
76 -165 43 -32 62 -63 49 -76 -9 -9 -771 -9 -780 0 -12 12 6 48 33 66 23 15
56 17 257 17 204 0 234 2 258 18 66 43 19 58 -208 69 -104 5 -196 11 -202 13
-16 6 -17 107 -2 122 11 11 464 17 502 7z m-418 -444 c144 -6 281 -6 395 0
220 12 194 35 264 -223 23 -84 23 -83 -51 -107 -84 -27 -230 -100 -347 -173
-49 -31 -94 -54 -100 -50 -6 4 -42 27 -81 52 -88 58 -215 122 -325 165 -101
39 -101 40 -49 216 32 107 43 130 63 130 6 0 110 -5 231 -10z m-150 -505 c236
-117 236 -117 140 -212 -89 -88 -145 -157 -202 -252 -51 -84 -55 -84 -98 -10
-76 131 -100 391 -49 548 7 21 45 7 209 -74z m863 -103 c5 -184 -12 -275 -69
-374 -38 -66 -42 -68 -65 -30 -68 111 -115 173 -205 267 -103 108 -103 108
-74 131 46 37 203 121 296 158 114 47 112 49 117 -152z m-461 -177 c160 -146
284 -354 221 -370 -46 -12 -616 -1 -629 12 -28 28 104 226 233 351 92 87 87
87 175 7z m133 -522 c14 -15 19 -81 7 -91 -55 -43 -390 -42 -445 1 -11 9 -9
76 3 97 5 9 427 2 435 -7z m-380 -228 c96 -19 266 -19 350 0 184 42 163 42
243 1 81 -42 154 -100 137 -111 -104 -65 -450 -86 -948 -59 -184 10 -193 -47
-12 -84 157 -31 217 -36 465 -36 290 -1 361 9 513 67 71 27 73 23 80 -135 6
-148 -1 -134 105 -224 22 -18 37 -40 37 -53 0 -27 -19 -35 -165 -72 -323 -83
-962 -78 -1306 9 -141 36 -161 56 -110 110 35 38 58 40 150 12 380 -113 1216
-92 1216 30 0 30 -43 32 -270 11 -95 -9 -218 -12 -380 -8 -223 5 -303 13 -460
47 -27 5 -66 13 -85 16 -58 11 -60 16 -60 136 0 183 89 290 310 375 17 7 38 5
70 -4 25 -8 79 -20 120 -28z"/>
</g>
</svg>
