<!DOCTYPE svg PUBLIC "-//W3C//DTD SVG 20010904//EN"
 "http://www.w3.org/TR/2001/REC-SVG-20010904/DTD/svg10.dtd">
<svg version="1.0" xmlns="http://www.w3.org/2000/svg"
 viewBox="0 0 512.000000 512.000000"
 preserveAspectRatio="xMidYMid meet">
<metadata>
Created by potrace 1.16, written by Peter Selinger 2001-2019
</metadata>
<g transform="translate(0.000000,512.000000) scale(0.100000,-0.100000)"
fill="currentColor" stroke="none">
<path d="M2272 4820 c-197 -21 -269 -106 -292 -345 -11 -115 -12 -720 -1
-1065 4 -129 4 -239 -1 -245 -5 -5 -179 -10 -436 -10 -1102 -4 -1200 -29
-1242 -322 -15 -103 -8 -585 10 -657 46 -186 291 -236 1010 -206 151 6 359 14
461 17 l186 5 6 -383 c12 -873 36 -1143 108 -1219 122 -127 824 -141 972 -19
110 91 130 332 104 1285 -7 256 -6 293 8 304 12 10 61 11 223 6 207 -7 657 4
957 23 416 27 451 55 480 381 18 200 18 317 0 462 -41 334 -91 345 -1375 309
-146 -4 -271 -5 -277 -3 -10 3 -13 82 -13 351 0 503 -31 1096 -61 1166 -37 85
-94 128 -199 151 -78 18 -503 27 -628 14z m568 -190 c76 -14 95 -38 104 -131
15 -161 36 -822 36 -1141 0 -337 0 -337 24 -365 34 -39 93 -43 586 -31 452 11
884 6 968 -12 87 -19 87 -19 87 -381 -1 -398 15 -371 -232 -388 -374 -26 -527
-31 -940 -31 -528 0 -486 15 -499 -177 -4 -65 -2 -289 5 -498 27 -873 12 -974
-140 -988 -289 -28 -581 -12 -618 34 -22 27 -26 66 -41 414 -6 132 -15 321
-19 420 -5 99 -7 302 -6 450 4 395 29 369 -359 361 -1187 -26 -1263 -21 -1304
72 -30 69 -27 505 5 639 15 66 358 94 1183 97 545 1 497 -41 484 431 -23 908
-10 1171 59 1215 47 29 479 36 617 10z"/>
</g>
</svg>
