<!DOCTYPE svg PUBLIC "-//W3C//DTD SVG 20010904//EN"
 "http://www.w3.org/TR/2001/REC-SVG-20010904/DTD/svg10.dtd">
<svg version="1.0" xmlns="http://www.w3.org/2000/svg"
 viewBox="0 0 512.000000 512.000000"
 preserveAspectRatio="xMidYMid meet">
<metadata>
Created by potrace 1.16, written by Peter Selinger 2001-2019
</metadata>
<g transform="translate(0.000000,512.000000) scale(0.100000,-0.100000)"
fill="currentColor" stroke="none">
<path d="M3905 4513 c-318 -73 -548 -279 -624 -560 -10 -38 -31 -60 -31 -34 0
39 -194 201 -280 236 -160 63 -377 94 -445 63 -128 -58 -17 -412 179 -570 66
-53 121 -82 252 -132 191 -72 268 -127 315 -224 35 -72 33 -240 -4 -336 -60
-155 -200 -330 -152 -189 88 255 62 317 -120 278 -39 -9 -90 -20 -115 -25
-487 -99 -993 -328 -1291 -583 -475 -409 -653 -1026 -439 -1522 69 -158 214
-254 455 -302 846 -166 1705 627 1914 1767 7 36 17 84 22 107 20 93 12 251
-16 278 -34 35 -59 31 -132 -16 -64 -42 -88 -45 -65 -8 97 154 132 304 130
544 -3 239 45 326 249 461 262 172 347 318 348 597 0 166 -28 198 -150 170z
m7 -198 c-14 -191 -90 -306 -290 -439 -70 -46 -145 -103 -167 -125 -50 -52
-55 -51 -55 7 0 256 121 427 394 558 110 53 122 53 118 -1z m-1149 -251 c211
-46 348 -166 458 -398 58 -123 59 -121 -54 -67 -45 21 -118 51 -161 66 -198
69 -297 162 -362 339 -31 86 -21 91 119 60z m227 -1191 c0 -56 -169 -428 -269
-593 -93 -156 -107 -203 -63 -213 30 -6 64 12 126 71 134 125 554 422 597 422
6 0 7 -16 4 -37 -11 -64 -37 -185 -52 -243 -8 -30 -18 -68 -23 -85 -170 -633
-597 -1171 -1085 -1367 -280 -111 -767 -65 -875 84 -110 152 -151 502 -86 733
154 543 705 975 1516 1188 169 45 210 53 210 40z M1944 2241 c-253 -127 -507
-469 -583 -784 -38 -160 32 -214 89 -67 104 271 287 541 506 748 154 146 150
184 -12 103z M2706 1576 c-224 -242 -545 -461 -858 -585 -149 -59 -44 -118
131 -75 309 77 637 334 814 639 93 158 50 169 -87 21z"/>
</g>
</svg>
