<!DOCTYPE svg PUBLIC "-//W3C//DTD SVG 20010904//EN"
 "http://www.w3.org/TR/2001/REC-SVG-20010904/DTD/svg10.dtd">
<svg version="1.0" xmlns="http://www.w3.org/2000/svg"
 viewBox="0 0 512.000000 512.000000"
 preserveAspectRatio="xMidYMid meet">
<metadata>
Created by potrace 1.16, written by Peter Selinger 2001-2019
</metadata>
<g transform="translate(0.000000,512.000000) scale(0.100000,-0.100000)"
fill="currentColor" stroke="none">
<path d="M1750 4799 c-1224 -31 -1180 -26 -1286 -135 -117 -121 -116 -116
-154 -1444 -11 -375 -11 -1001 0 -1375 4 -154 13 -453 19 -665 21 -771 54
-817 599 -840 724 -30 2152 -36 2622 -10 91 5 318 12 505 15 446 8 528 26 618
138 92 114 94 127 117 852 6 171 14 416 20 545 12 302 12 1099 0 1345 -5 105
-14 377 -20 605 -14 551 -21 650 -53 720 -47 105 -129 176 -239 206 -151 42
-1777 68 -2748 43z m1685 -199 c1095 -34 1007 -28 1063 -76 57 -49 72 -111 72
-305 0 -85 5 -278 10 -429 6 -151 15 -426 20 -610 6 -184 13 -398 17 -475 6
-132 -7 -643 -27 -1125 -6 -118 -12 -327 -15 -465 -10 -417 -27 -500 -111
-533 -35 -13 -507 -31 -1619 -63 -526 -15 -1650 7 -2048 40 -232 19 -235 25
-247 421 -5 157 -16 521 -25 810 -17 540 -16 1004 6 1700 5 173 13 455 18 625
13 452 4 440 331 449 102 2 345 9 540 16 726 23 904 27 1290 29 217 1 544 -3
725 -9z M1555 4120 c-3 -5 -17 -10 -29 -10 -13 0 -29 -7 -36 -15 -7 -8 -16
-15 -21 -15 -12 0 -409 -396 -409 -409 0 -6 -4 -11 -8 -11 -12 0 -45 -79 -49
-117 -6 -54 47 -135 174 -261 62 -63 113 -115 113 -116 0 -7 242 -258 406
-421 l190 -190 -69 -67 c-38 -38 -73 -68 -78 -68 -5 0 -9 -6 -9 -13 0 -8 -11
-20 -25 -27 -14 -7 -25 -17 -25 -21 0 -4 -48 -56 -107 -117 -439 -447 -543
-560 -543 -590 0 -12 -5 -31 -12 -41 -9 -15 -9 -25 0 -46 7 -14 12 -34 12 -43
0 -9 11 -29 25 -44 14 -15 25 -31 25 -36 0 -13 319 -346 383 -399 15 -13 35
-23 45 -23 9 0 26 -7 36 -15 25 -19 53 -19 90 0 15 8 34 15 41 15 7 0 31 17
53 38 22 20 77 71 123 114 46 42 154 144 239 228 85 83 179 174 208 202 28 28
52 55 52 60 0 4 7 8 15 8 8 0 15 3 15 8 0 4 42 51 93 105 l92 99 86 -89 c48
-48 181 -184 295 -302 401 -412 461 -471 476 -471 9 0 21 -7 28 -15 16 -20 98
-19 124 0 11 8 28 15 38 15 10 0 18 5 18 10 0 6 6 10 13 10 8 0 39 26 69 57
31 32 117 118 192 191 75 72 136 136 136 141 0 5 6 11 13 14 38 14 85 165 57
182 -5 3 -10 15 -10 26 0 31 -35 73 -167 208 -68 68 -123 128 -123 132 0 5 -7
9 -15 9 -8 0 -15 3 -15 8 0 11 -108 122 -120 122 -5 0 -10 4 -10 9 0 8 -108
121 -115 121 -8 0 -295 292 -295 300 0 5 32 39 71 77 134 127 254 248 343 343
48 52 162 170 252 262 90 92 164 174 164 182 0 8 5 16 11 18 29 10 32 164 3
193 -8 7 -14 15 -14 17 0 20 -404 428 -423 428 -8 0 -17 7 -21 15 -4 12 -24
15 -90 15 -62 0 -89 -4 -100 -15 -8 -8 -18 -15 -22 -15 -4 0 -16 -10 -28 -22
-12 -13 -53 -50 -91 -83 -93 -81 -525 -516 -525 -529 0 -2 -47 -51 -104 -109
-105 -106 -105 -106 -153 -55 -172 180 -791 798 -800 798 -6 0 -16 7 -23 15
-7 8 -25 15 -41 15 -15 0 -31 5 -34 10 -3 6 -17 10 -30 10 -13 0 -27 -4 -30
-10z m315 -520 c154 -155 280 -283 280 -286 0 -4 39 -43 136 -135 27 -26 74
-73 105 -105 108 -114 141 -133 198 -114 55 18 187 138 371 340 84 91 462 473
535 539 38 34 38 34 191 -124 85 -86 154 -158 154 -160 0 -14 -40 -10 -45 5
-4 11 -15 17 -35 16 -35 -1 -40 -13 -7 -18 17 -2 22 -10 22 -33 0 -31 23 -37
53 -13 21 18 13 -6 -10 -29 -13 -13 -54 -55 -93 -95 -38 -39 -157 -159 -262
-266 -106 -107 -193 -199 -193 -203 0 -5 -5 -9 -10 -9 -13 0 -120 -109 -120
-122 0 -4 -7 -8 -15 -8 -8 0 -15 -4 -15 -9 0 -11 -80 -91 -91 -91 -5 0 -9 -7
-9 -15 0 -8 -4 -15 -10 -15 -5 0 -19 -20 -30 -45 -36 -80 -84 -23 560 -673
266 -269 329 -339 294 -330 -25 6 -57 -9 -48 -23 3 -6 19 -7 35 -4 42 9 38 2
-48 -84 -43 -43 -113 -115 -155 -161 -67 -71 -80 -81 -94 -70 -8 8 -115 114
-237 238 -388 392 -630 632 -637 632 -4 0 -13 7 -20 15 -43 52 -121 14 -260
-129 -41 -43 -106 -110 -145 -149 -38 -40 -88 -94 -110 -121 -51 -63 -207
-219 -270 -271 -27 -21 -91 -81 -143 -132 -52 -51 -98 -93 -103 -93 -8 0 -119
106 -119 114 0 2 -19 24 -42 48 -39 40 -77 82 -132 146 -25 29 -22 33 170 229
88 88 178 183 201 211 24 27 134 141 246 254 217 218 257 264 257 295 0 52
-56 115 -439 502 -221 222 -411 417 -424 433 -12 17 -28 36 -35 44 -16 17 -17
15 91 125 42 43 77 84 77 89 0 6 4 10 9 10 5 0 38 29 73 65 35 36 64 65 66 65
1 0 128 -126 282 -280z"/>
</g>
</svg>
