<?xml version="1.0" encoding="utf-8"?>
<!-- Generator: Adobe Adobe Illustrator 24.2.0, SVG Export Plug-In . SVG Version: 6.00 Build 0)  -->
<svg version="1.1" id="Layer_1" xmlns="http://www.w3.org/2000/svg" xmlns:xlink="http://www.w3.org/1999/xlink" x="0px" y="0px"
	 width="288px" height="360px" viewBox="0 0 288 360" style="enable-background:new 0 0 288 360;" xml:space="preserve">
<g>
	<path d="M194.37,160.51c-0.1,0.56-0.17,0.99-0.52,1.17c-3.3,1.74-3.29,4.97-3.47,8.01c-0.18,2.94,0.03,5.9-0.03,8.86
		c-0.15,7.87-0.56,15.73-1.3,23.57c-0.38,3.98-0.38,7.99-0.9,11.98c-0.33,2.54,0.27,5.11,1.64,7.35c2.18,3.59,1.41,4.27-1.29,6.15
		c-2.23,1.55-4.93,2.6-7.77,2.8c-2.35,0.16-3.15-0.93-2.67-3.22c1.34-6.49,0.86-12.91-0.84-19.29c-0.6-2.24-1.26-4.45-1.49-6.81
		c-0.21-2.18-1.2-4.27-2.07-6.36c-0.85,0.35-0.64,0.96-0.63,1.42c0.01,3.26-0.37,6.49-0.79,9.72c-0.68,5.25-0.99,10.54-1.72,15.79
		c-0.28,2.03-0.2,3.84,1.7,5.49c2.69,2.34,1.73,5.59-1.6,6.76c-1.71,0.6-3.25,1.59-4.97,2.19c-1.19,0.42-2.37,0.51-3.57,0.28
		c-2.44-0.46-3.61-2.69-2.01-4.51c2.82-3.19,2.12-6.55,1.24-10.04c-0.68-2.7-1.41-5.38-1.44-8.21c-0.02-1.91-0.78-3.7-1.26-5.51
		c-1.08-4.1-1.2-8.37-2.39-12.43c-1.19-4.07-1.66-8.27-2.43-12.42c-0.38-2.02-1.25-3.88-1.74-5.86c-0.2-0.82-0.87-1.36-1.49-1.94
		c-1.8-1.68-1.43-3.49,0.53-4.97c2.16-1.63,4.63-2.35,7.14-3.09c1.01-0.3,1.93-0.1,2.84,0.39c1.26,0.68,1.58,1.49,0.98,2.77
		c-0.29,0.61-0.71,1.16-1.03,1.76c-1.01,1.94-1.45,3.94-0.87,6.13c1.45,5.51,1.74,11.2,2.4,16.83c0.24,2.06,1.05,4.01,2.58,5.4
		c0.53-0.81,0.44-1.7,0.58-2.56c1.51-9.23,1.45-18.54,1.43-27.85c-0.01-2.37,0.74-4.54,3.08-5.82c1.66-0.9,3.63-0.51,4.46,1.16
		c0.47,0.94,0.94,1.99,0.97,3c0.09,3.24,1.61,6.11,2.19,9.21c0.71,3.85,2.1,7.51,3.26,11.23c0.11,0.35,0.09,0.75,0.59,1.07
		c0.74-0.61,1.29-1.4,1.28-2.4c-0.06-5.38,1.53-10.64,1.11-16.04c-0.1-1.36-0.06-2.72-0.05-4.09c0.01-1.05-0.32-1.8-1.26-2.46
		c-1.88-1.34-1.91-3.36-0.01-4.69c2.61-1.83,5.47-3.15,8.74-3.25C193.79,157.11,194.4,157.8,194.37,160.51z"/>
	<path d="M75.01,139.56c-0.31-1.2-0.5-2.21-0.26-3.3c0.3-1.36,0.76-2.3,2.13-3.13c3.6-2.19,7.45-3.69,11.37-5.13
		c4.68-1.72,9.47-2.41,14.43-2.24c2.23,0.08,4.1,0.69,5.65,2.39c0.65,0.72,0.92,1.44,1.1,2.37c2.31,11.63,2.41,23.42,2.71,35.2
		c0.07,2.7,0.76,5.39-0.04,8.08c-0.13,0.43-0.13,0.92-0.33,1.3c-1.57,2.92-3.37,5.62-6.18,7.59c-1.54,1.08-3.35,1.19-4.96,2.02
		c-3.25,1.67-6.8,2.77-10.28,3.77c-2.67,0.77-5.21,1.89-7.9,2.57c-1.05,0.26-1.95-0.04-2.82-0.52c-2.82-1.57-3.37-5.61-0.87-7.58
		c2.55-2,3.28-4.52,3.09-7.57c-0.29-4.75-0.56-9.51-0.74-14.27c-0.16-4.37-0.62-8.74-0.86-13.12c-0.15-2.79-1.57-5.09-3.89-6.75
		C75.81,140.85,75.29,140.41,75.01,139.56z M89.9,173.89c0.9,2.7,2.84,3.66,5.66,2.68c1.82-0.64,3.57-1.28,4.97-2.87
		c2.01-2.28,3.49-4.62,3.48-7.77c-0.01-3.41-0.3-6.79-0.69-10.17c-0.66-5.63-1.07-11.29-1.63-16.93c-0.13-1.31-0.74-2.24-1.97-3.05
		c-1.45-0.96-2.93-0.85-4.35-0.71c-4.57,0.47-7.5,1.93-7.37,7.38C88.25,152.81,89.17,163.14,89.9,173.89z"/>
	<path d="M51.28,199.76c-3.87,0.42-6.3-1.47-7.48-5.52c-0.56-1.93-0.68-3.87-0.68-5.83c-0.03-11.8-0.23-23.6-1.01-35.38
		c-0.14-2.11-0.25-4.2,0.39-6.3c0.85-2.8,2.37-4.54,5.4-5.25c1.59-0.37,3.21-1.25,4.79-1.74c3.56-1.1,6.65-3.54,10.53-3.68
		c0.44-0.02,0.87-0.23,1.3-0.37c4.5-1.49,6.99,0.06,7.44,4.57c0.6,6.01,1.65,11.96,2.22,17.98c0.94,9.83,0.53,19.65,0.83,29.47
		c0.11,3.71-1.15,4.9-4.85,6.67c-2.92,1.39-5.86,2.67-8.9,3.78C58.08,199.31,54.84,199.78,51.28,199.76z M52.07,151.88
		c-0.97,0.56-0.88,1.51-0.88,2.41c0,6.05,0.07,12.1,0.01,18.14c-0.04,4.1,0.66,8.13,0.93,12.2c0.07,0.98,0.3,1.95,0.68,2.86
		c0.36,0.86,0.93,1.37,1.89,1.74c1.87,0.72,3.52,0.06,5.3-0.19c2.05-0.29,3.35-1.75,4.18-3.08c1.31-2.12,1.87-4.7,1.67-7.35
		c-0.43-5.65-0.73-11.31-1.13-16.97c-0.25-3.55-0.27-7.1-0.34-10.65c-0.05-2.5-2.85-4.89-5.09-4.19
		C56.51,147.68,53.82,148.83,52.07,151.88z"/>
	<path d="M135.93,173.51c-2.35,1.09-4.59,1.86-6.99,2.26c-1.31,0.21-2.61,0.68-3.87,1.23c-1.8,0.78-3.67,1.41-5.69,1.4
		c-2.71,0-4.58-2.85-3.32-5.32c0.82-1.61,1.55-3.22,2.04-4.97c1.01-3.64,1.11-7.26,0.5-10.99c-0.59-3.65-1-7.33-0.93-11.06
		c0.06-3.63-0.1-7.26-0.36-10.89c-0.2-2.87-1.71-4.94-3.75-6.69c-2.45-2.1-1.89-6.94,1.11-8.15c2.91-1.17,5.71-2.73,8.97-2.89
		c1.28-0.06,2.45-0.74,3.64-1.16c2.99-1.04,6.18-1.18,9.14-2.35c2.48-0.98,4.56,0.48,4.71,3.15c0.07,1.28,0.07,2.57,0,3.86
		c-0.17,3.28-2.95,5.28-6.14,4.38c-1.26-0.35-2.51-0.5-3.81-0.47c-3.07,0.08-5.64,2.48-5.78,5.58c-0.11,2.42-0.02,4.84-0.06,7.27
		c-0.03,1.53,0.91,2.46,2.11,2.91c1.2,0.45,2.46,0.4,3.5-0.78c0.93-1.05,2-2.02,3.02-2.95c1.06-0.97,2.7-1.96,4.25-1.36
		c1.75,0.67,3.27,1.82,3.03,4.19c-0.2,1.95-0.08,3.93-0.22,5.9c-0.15,2.25-1.55,3.52-3.87,3.59c-2.12,0.07-4.24,0.06-6.36,0.1
		c-1.42,0.03-2.33,0.63-2.86,2.08c-1.63,4.41-1.92,8.79-0.08,13.2c0.82,1.95,2.11,2.46,3.96,1.55c1.43-0.71,2.55-1.82,3.67-2.94
		c1.38-1.36,2.64-2.91,4.5-3.68c2.08-0.87,3.44-0.06,3.93,2.13c0.26,1.17,0.76,2.27,1.12,3.42c0.81,2.62,0.06,4.48-2.17,6.04
		C140.82,172.53,138.45,172.95,135.93,173.51z"/>
	<path d="M9.99,161.44c-0.23-4.82-0.63-9.41-1.26-13.99c-0.29-2.08-0.31-4.18,0.45-6.27c1.09-2.96,3-5.06,5.88-6.25
		c3.57-1.48,7.19-2.83,10.75-4.35c1.31-0.56,2.47-1.37,3.92-1.7c2.44-0.55,4.23-0.11,5.93,2c2.39,2.96,2.95,6.21,2.51,9.75
		c-0.36,2.88-3.72,4.52-6.12,3.12c-1.1-0.64-1.49-1.84-2.11-2.84c-1.04-1.67-2.21-2.18-3.96-1.28c-1.28,0.66-2.56,1.33-3.91,1.76
		c-2.66,0.85-3.75,2.92-3.76,5.35c-0.02,6.57-0.69,13.17,0.62,19.7c0.39,1.93,0.42,3.91,0.43,5.88c0.01,7.95,0.08,15.9,0.03,23.84
		c-0.03,4.64,1.48,5.33,5.55,4.37c1.95-0.46,3.98-0.75,5.7-2.02c2.07-1.52,3.27-3.43,3.4-6.01c0.07-1.47,1.05-2.34,2.28-2.79
		c1.36-0.49,2.83-0.76,4.02,0.5c1.66,1.76,2.5,3.91,2.03,6.24c-0.73,3.65-2.42,6.73-5.93,8.61c-5.69,3.06-11.82,4.58-18.13,5.54
		c-1.37,0.21-3.09,0.08-3.82-0.85c-0.86-1.08-1.7-2.44-1.9-4.01c-1.07-8.48-1.49-17.01-2-25.53c-0.31-5.28-0.01-10.59-0.31-15.88
		C10.22,163.46,10.1,162.56,9.99,161.44z"/>
	<path d="M221.46,164.4c1.55,0.62,2.05,1.68,1.96,3.12c-0.06,1.06,0.05,2.12-0.05,3.18c-0.22,2.34-1.92,3.6-4.26,3.19
		c-0.74-0.13-1.47-0.34-2.2-0.56c-2.79-0.85-4.99,0.59-6.29,2.56c-1.36,2.06-2.17,4.66-1.43,7.34c0.36,1.31,0.69,2.63,1.11,3.92
		c0.4,1.23,1.71,1.77,2.93,1.16c1.15-0.57,2.15-1.37,3.1-2.26c1.31-1.23,2.68-2.48,4.76-2.08c1.29,0.25,2.17,0.72,2.47,2.2
		c0.38,1.87,0.55,3.73,0.5,5.63c-0.07,2.76-1.37,4.15-4.18,4.33c-1.58,0.1-3.18,0.02-4.77,0.04c-2.54,0.03-4.04,1.24-4.19,3.74
		c-0.18,3.02-0.12,6.05,0.09,9.07c0.09,1.37,0.97,1.98,2.14,2.3c2.12,0.59,4.53-0.66,5.48-2.71c0.58-1.25,1.6-2.19,2.57-3.11
		c0.56-0.53,1.45-0.48,2.15-0.08c0.85,0.49,1.6,1.08,2.11,1.99c1.53,2.71,0.06,8.59-2.6,10.18c-0.32,0.19-0.7,0.36-1.05,0.37
		c-2.16,0.04-4.18,0.79-6.15,1.46c-2.92,1-6.05,1.23-8.87,2.6c-0.66,0.32-1.46,0.38-2.21,0.5c-2.58,0.41-4.65-1.84-3.55-4.18
		c2.93-6.23,2.78-12.72,2.14-19.31c-0.19-1.95-0.07-3.93-0.06-5.9c0.01-3.79-1.04-7.48-1.03-11.28c0-1.6-1.17-2.72-2.42-3.66
		c-2.81-2.08-2.8-5.59,0.16-7.48c2.01-1.28,4.05-2.53,6.59-2.74c1.38-0.11,2.74-0.76,4.07-1.24
		C213.98,165.41,217.7,165.19,221.46,164.4z"/>
	<path d="M245.83,181.15c5.39,2.14,8.28,5.84,8.57,11.62c0.19,3.68-0.11,7.18-1.4,10.66c-1.14,3.1-3.61,4.64-6.31,5.75
		c-2.96,1.22-6.1,2.02-9.06,3.3c-1.43,0.62-2.96,0.58-4.44,0.81c-1.53,0.24-2.56-0.59-2.99-2.15c-0.92-3.32-1.28-6.65-0.46-10.08
		c0.28-1.15,0.87-1.91,1.77-2.49c1.64-1.07,2.97-0.6,3.77,1.22c0.33,0.76,0.42,1.58,0.85,2.33c0.72,1.25,1.69,1.7,3.02,1.28
		c1.71-0.54,3.38-1.12,5.18-1.47c2.95-0.57,4.08-4.33,2.27-7.24c-0.87-1.4-1.82-2.71-3.52-3.59c-1.51-0.78-2.88-2.1-4.39-3.05
		c-2.35-1.47-4.68-2.99-7.03-4.46c-2.99-1.86-5.05-4.48-5.56-8.3c-0.4-2.99-0.29-5.87,0.19-8.78c0.44-2.68,3.46-5.95,6.18-6.57
		c1.25-0.29,2.51-0.69,3.58-1.18c3.01-1.37,6.32-1.34,9.38-2.45c2.35-0.85,4.09,0.26,5.19,2.65c0.57,1.24,1.16,2.48,1.44,3.81
		c0.52,2.47-0.49,6-3.95,6.15c-1.47,0.06-2.62-0.47-3.08-1.78c-0.5-1.41-1.47-1.77-2.73-1.95c-4.01-0.56-7.15,0.95-8.51,4.34
		c-0.81,2.04,0.08,4.93,1.86,6.23c1.39,1.02,2.93,1.83,4.51,2.4C242.17,178.89,243.91,180,245.83,181.15z"/>
	<path d="M271.23,182.91c0.31,2.69,0.53,5.18,0.97,7.63c0.27,1.5,1.21,2.78,2.47,3.63c0.67,0.45,1.65,0.51,1.84,1.46
		c0.23,1.19,0.43,2.52-0.07,3.58c-0.65,1.36-1.84,2.57-3.42,2.72c-2.3,0.23-4.35,1.19-6.5,1.85c-2.26,0.69-2.52,0.63-4.26-1.71
		c-1.24-1.68-1.24-2.22,0.13-3.99c2-2.59,2.64-5.62,2.27-8.73c-1.09-9.25-1.29-18.55-1.64-27.84c-0.03-0.81,0.16-1.77-0.92-2.08
		c-0.98-0.29-1.47,0.43-2.03,1.09c-2.02,2.4-3.73,2.91-6.12,2.13c-0.97-0.31-1.37-0.85-1.38-1.79c0-1.51-0.11-3.04,0.06-4.53
		c0.23-2.07,1.71-3.58,3.47-4.07c1.82-0.5,3.6-1.12,5.35-1.74c3.6-1.27,7.34-2.09,10.88-3.6c1.54-0.66,3.43-1.02,5.44-1.35
		c1.05,2.87,1.86,5.73,1.63,8.77c-0.12,1.62-3.41,3.15-5.15,2.51c-0.35-0.13-0.66-0.37-1-0.54c-2.03-1-3.17-0.37-3.29,1.92
		c-0.05,0.97,0.19,1.95,0.25,2.93C270.64,168.34,271.26,175.5,271.23,182.91z"/>
	<path d="M108.99,199.83c2.04-0.23,3.54-1.33,5.18-2.08c1.01-0.46,1.83-0.66,2.59,0.35c0.79,1.04,0.98,2.07-0.06,3.03
		c-1.6,1.47-1.9,3.38-1.84,5.37c0.06,2.09,1.27,2.97,3.3,2.55c4.07-0.85,5.44-4.87,2.74-8.03c-0.2-0.23-0.43-0.43-0.64-0.65
		c-1.94-1.97-1.81-2.95,0.6-4.22c1.2-0.63,2.39-1.32,3.73-1.63c0.93-0.21,1.78-0.16,2.47,0.66c0.77,0.91,0.3,1.56-0.2,2.41
		c-1.11,1.88-1.27,3.99-1.09,6.14c0.34,4.14,0.68,8.28,1.36,12.39c0.28,1.72,0.54,3.38,2.18,4.5c0.82,0.56,0.7,1.97-0.24,2.5
		c-2.08,1.17-4.05,2.67-6.9,2.79c-0.18-4.25,1.59-8.46,0.22-12.66c-3.84-1.01-6.59,1.22-6.38,5.08c0.1,1.71,0.63,3.24,1.38,4.74
		c1.2,2.41,0.9,4.41-2.22,5.46c-0.86,0.29-1.71,0.58-2.59,0.81c-1.12,0.29-1.91-0.25-2.45-1.17c-0.54-0.92-0.04-1.44,0.69-2.07
		c1.39-1.2,1.56-2.95,1.29-4.6c-0.71-4.27-0.55-8.6-0.97-12.89c-0.13-1.31-0.08-2.73-1.22-3.91c-0.99,0.59-1.52,1.69-2.57,2.12
		c-1.16,0.47-1.96-0.63-3.16-0.61c-0.45,0.62-0.28,1.39-0.27,2.1c0,4.77,0.03,9.54,0.04,14.3c0,1.8,0.33,3.32,1.96,4.53
		c1.83,1.36,1.52,3.15-0.55,4.18c-1.08,0.54-1.94,1.43-3.16,1.75c-0.96,0.25-1.96,0.76-2.78-0.02c-0.86-0.82-0.81-2.28-0.3-2.97
		c1.93-2.56,1.2-5.38,1.07-8.09c-0.21-4.3-0.98-8.56-0.93-12.88c0-0.2-0.15-0.4-0.23-0.59c-0.98-0.35-1.4,0.35-1.9,0.9
		c-1.4,1.54-1.41,1.54-3.49,0.53c-0.08-0.7-0.2-1.44-0.24-2.19c-0.1-2.03,0.19-2.1,2.02-3.13
		C99.65,202.27,104.44,201.65,108.99,199.83z"/>
	<path d="M56.23,239.92c-1.01-5.11-1.32-10.09-1.37-15.08c-0.03-2.96-0.33-5.88-0.68-8.81c-0.16-1.36-0.25-2.71-0.15-4.07
		c0.16-2.12,1.35-3.63,3.27-4.17c1.55-0.44,2.93-1.14,4.36-1.79c1.52-0.69,3.03-1.19,4.76-1.23c1.64-0.04,2.41,0.74,2.75,2.1
		c0.24,0.94,0.29,1.94,0.32,2.92c0.2,8.01,1.09,15.98,1.53,23.98c0.07,1.36,0.11,2.72,0.16,4.08c0.19,4.38-1.83,5.66-5.31,6.72
		c-1.77,0.54-3.62,0.95-5.4,1.55c-1.97,0.66-3.12,0.03-3.79-1.95C56.23,242.85,56.25,241.48,56.23,239.92z M64.85,210.98
		c-0.32-0.62-0.85-0.79-1.52-0.74c-1.54,0.1-4.39,2.75-4.38,4.32c0.03,6.63-0.45,13.29,0.71,19.88c0.26,1.48,0.29,3.02,0.64,4.47
		c0.43,1.75,1.67,2.25,3.29,1.55c2.62-1.14,3.47-2.64,3.25-5.5c-0.43-5.56-1.16-11.11-0.98-16.71
		C65.94,215.92,65.76,213.57,64.85,210.98z"/>
	<path d="M132.19,208.79c-0.19-2.7-0.32-5.19-0.54-7.67c-0.14-1.59-0.57-3.04-1.89-4.17c-1.1-0.94-0.98-1.79-0.04-2.91
		c1.03-1.23,2.47-1.94,3.87-2.18c2.48-0.42,4.74-1.47,7.14-2.08c1.77-0.45,2.67,0.2,3.03,2.24c0.35,1.95-0.38,3.12-2.1,3.25
		c-0.75,0.06-1.51-0.09-2.26-0.11c-2.23-0.04-3.56,1.19-3.64,3.38c-0.03,0.76,0,1.51-0.03,2.27c-0.04,0.88,0.08,1.7,1.01,2.07
		c0.85,0.34,1.6,0.15,2.29-0.48c0.49-0.45,1.05-0.86,1.64-1.19c1.68-0.93,3.13-0.09,3.24,1.84c0.03,0.45,0.03,0.91,0.02,1.36
		c-0.03,2.44-0.63,3.03-3.1,3.09c-0.08,0-0.15,0-0.23,0c-3.86,0.05-4.76,1.06-4.35,4.9c0.05,0.45,0.2,0.88,0.29,1.33
		c0.19,0.95,0.14,2.3,1.35,2.31c1.19,0.02,2.61-0.11,3.33-1.47c0.18-0.33,0.34-0.69,0.59-0.94c1.05-1.05,2.21-0.81,2.82,0.55
		c1.08,2.43,0.56,3.71-1.85,4.87c-3.13,1.5-6.67,1.89-9.71,3.64c-0.7,0.4-1.35,0.03-1.8-0.53c-0.68-0.84-0.91-2.22-0.27-2.74
		c3.23-2.6,1.43-5.85,1.4-8.86C132.41,210.04,132.28,209.52,132.19,208.79z"/>
	<path d="M73.12,211.65c2.72-1.1,5.28-2.16,7.85-3.18c1.37-0.55,2.98-0.98,4.11-0.02c1.24,1.05,0.9,2.73,0.51,4.31
		c-1.6,0.53-3.2,0.91-4.85,1.1c-2.4,0.28-3.16,1.13-3.18,3.49c-0.01,0.91-0.02,1.82,0.04,2.72c0.13,1.83,1.28,2.47,2.96,1.67
		c0.98-0.47,1.78-1.19,2.33-2.1c0.53-0.88,1.25-0.72,1.97-0.59c0.73,0.13,0.86,0.74,0.92,1.38c0.15,1.81,0.19,3.62-0.16,5.39
		c-1.01,0.59-1.95,0.56-3.06,0.37c-3-0.53-4.43,1.01-3.86,4.05c0.33,1.76,0.18,3.66,1.38,5.2c0.27,0.35,0.39,0.77,0.76,1.09
		c1.04,0.93,1.09,1.77-0.02,2.45c-1.73,1.06-3.56,1.99-5.65,2.22c-1,0.11-1.8-0.1-2.39-0.92c-0.61-0.85,0.1-1.45,0.52-2
		c1.64-2.17,1.65-4.53,1.26-7.11c-0.54-3.51-0.79-7.06-1.11-10.59c-0.14-1.59-0.36-3.11-1.28-4.51
		C70.85,214.07,71,213.55,73.12,211.65z"/>
</g>
</svg>
